M48
METRIC,LZ,0000.00
;FILE_FORMAT=4:2
;TYPE=PLATED
;Layer: Drill PTH
;EasyEDA v6.4.12, 2020-12-31T12:21:15--5:00
;99fc4708075f4ff381704a5e9c7ef7fe,db09687e621142cba360e7e147da6c3e,10
;Gerber Generator version 0.2
;Holesize 1 = 0.900 mm
T01C0.900
;Holesize 2 = 0.901 mm
T02C0.901
;Holesize 3 = 0.915 mm
T03C0.915
;Holesize 4 = 1.101 mm
T04C1.101
;Holesize 5 = 1.301 mm
T05C1.301
;Holesize 6 = 2.501 mm
T06C2.501
%
G05
G90
T01
X004407Y006096
X005423Y006096
X004407Y005702
X005423Y005702
X005918Y006515
X006934Y006515
X005931Y006109
X006947Y006109
X005931Y005715
X006947Y005715
X004407Y006515
X005423Y006515
T02
X003073Y004445
X003327Y004445
X003581Y004445
X003835Y004445
X004089Y004445
X004343Y004445
X004597Y004445
X004851Y004445
X005105Y004445
X005359Y004445
X005613Y004445
X005867Y004445
X006121Y004445
X006375Y004445
X006629Y004445
X003327Y001905
X003581Y001905
X003835Y001905
X004089Y001905
X004343Y001905
X004597Y001905
X004851Y001905
X005105Y001905
X005359Y001905
X005613Y001905
X005867Y001905
X006121Y001905
X006375Y001905
X006629Y001905
X003073Y001905
T03
X000902Y006515
X000902Y006261
X000902Y006007
X000902Y005753
X000902Y005499
X000902Y005245
T04
X007518Y006528
X007518Y006274
X007518Y006020
X002680Y000686
X002934Y000686
X003188Y000686
X006210Y000699
X006464Y000699
X006718Y000699
T05
X004750Y000864
X005250Y000864
T06
X002502Y005823
X002982Y006103
X002982Y005523
M30
