G04 Layer: TopLayer*
G04 EasyEDA v6.4.12, 2020-12-31T12:21:15--5:00*
G04 99fc4708075f4ff381704a5e9c7ef7fe,db09687e621142cba360e7e147da6c3e,10*
G04 Gerber Generator version 0.2*
G04 Scale: 100 percent, Rotated: No, Reflected: No *
G04 Dimensions in millimeters *
G04 leading zeros omitted , absolute positions ,4 integer and 5 decimal *
%FSLAX45Y45*%
%MOMM*%

%ADD10C,0.2540*%
%ADD11C,0.2600*%
%ADD12R,1.6000X1.6000*%
%ADD13C,1.6000*%
%ADD14C,1.8000*%
%ADD15R,1.8000X1.9500*%
%ADD16R,1.8000X1.8000*%
%ADD18C,2.0320*%
%ADD19C,1.8796*%
%ADD20C,4.0000*%
%ADD21C,1.5240*%

%LPD*%
D10*
X901700Y5499100D02*
G01*
X1676400Y5499100D01*
X2273300Y4902200D01*
X5422900Y4889500D01*
X5867400Y4445000D01*
X3187700Y685800D02*
G01*
X3187700Y850900D01*
X3898900Y1562100D01*
X5778550Y1562100D01*
X6121400Y1904949D01*
X901700Y5245100D02*
G01*
X1727200Y5245100D01*
X2171700Y4800600D01*
X5257749Y4800600D01*
X5613400Y4444949D01*
X901700Y6515100D02*
G01*
X533400Y6146800D01*
X533400Y5067300D01*
X965200Y4635500D01*
X3136900Y4635500D01*
X3327400Y4445000D01*
X901700Y5753100D02*
G01*
X1739900Y5753100D01*
X2451100Y5041900D01*
X6032500Y5041900D01*
X6032500Y4787849D01*
X6375400Y4444949D01*
X901700Y6007100D02*
G01*
X1663700Y6007100D01*
X2463800Y5207000D01*
X4927600Y5207000D01*
X5422900Y5702300D01*
D11*
X4406900Y6515100D02*
G01*
X1155700Y6515100D01*
X901700Y6261100D01*
D12*
G01*
X7518400Y6527800D03*
D13*
G01*
X7518400Y6273800D03*
G01*
X7518400Y6019800D03*
G36*
X2599700Y765799D02*
G01*
X2759699Y765799D01*
X2759699Y605800D01*
X2599700Y605800D01*
G37*
G01*
X2933700Y685800D03*
G01*
X3187700Y685800D03*
G36*
X6130300Y778499D02*
G01*
X6290299Y778499D01*
X6290299Y618500D01*
X6130300Y618500D01*
G37*
G01*
X6464300Y698500D03*
G01*
X6718300Y698500D03*
D14*
G01*
X3073400Y4444949D03*
G01*
X3327400Y4444949D03*
G01*
X3581400Y4444949D03*
G01*
X3835400Y4444949D03*
G01*
X4089400Y4444949D03*
G01*
X4343400Y4444949D03*
G01*
X4597400Y4444949D03*
G01*
X4851400Y4444949D03*
G01*
X5105400Y4444949D03*
G01*
X5359400Y4444949D03*
G01*
X5613400Y4444949D03*
G01*
X5867400Y4444949D03*
G01*
X6121400Y4444949D03*
G01*
X6375400Y4444949D03*
D15*
G01*
X6629400Y4444949D03*
D14*
G01*
X3327400Y1904949D03*
G01*
X3581400Y1904949D03*
G01*
X3835400Y1904949D03*
G01*
X4089400Y1904949D03*
G01*
X4343400Y1904949D03*
G01*
X4597400Y1904949D03*
G01*
X4851400Y1904949D03*
G01*
X5105400Y1904949D03*
G01*
X5359400Y1904949D03*
G01*
X5613400Y1904949D03*
G01*
X5867400Y1904949D03*
G01*
X6121400Y1904949D03*
G01*
X6375400Y1904949D03*
D16*
G01*
X6629400Y1904949D03*
D14*
G01*
X3073400Y1904949D03*
G36*
X4648200Y965200D02*
G01*
X4851400Y965200D01*
X4851400Y762000D01*
X4648200Y762000D01*
G37*
D18*
G01*
X5250179Y863600D03*
D19*
G01*
X4406900Y6096000D03*
G01*
X5422900Y6096000D03*
G01*
X4406900Y5702300D03*
G01*
X5422900Y5702300D03*
G01*
X5918200Y6515100D03*
G01*
X6934200Y6515100D03*
G01*
X5930900Y6108700D03*
G01*
X6946900Y6108700D03*
G01*
X5930900Y5715000D03*
G01*
X6946900Y5715000D03*
D20*
G01*
X2501900Y5823407D03*
G01*
X2981909Y6103391D03*
G01*
X2981909Y5523407D03*
D21*
G01*
X901700Y6515100D03*
G01*
X901700Y6261100D03*
G01*
X901700Y6007100D03*
G01*
X901700Y5753100D03*
G01*
X901700Y5499100D03*
G01*
X901700Y5245100D03*
D19*
G01*
X4406900Y6515100D03*
G01*
X5422900Y6515100D03*
M02*
