G04 Layer: BottomSolderMaskLayer*
G04 EasyEDA v6.4.12, 2020-12-31T12:21:15--5:00*
G04 99fc4708075f4ff381704a5e9c7ef7fe,db09687e621142cba360e7e147da6c3e,10*
G04 Gerber Generator version 0.2*
G04 Scale: 100 percent, Rotated: No, Reflected: No *
G04 Dimensions in millimeters *
G04 leading zeros omitted , absolute positions ,4 integer and 5 decimal *
%FSLAX45Y45*%
%MOMM*%

%ADD27C,1.8032*%
%ADD28C,2.0032*%
%ADD32C,2.2352*%
%ADD33C,2.0828*%
%ADD34C,4.2032*%
%ADD35C,1.7272*%

%LPD*%
G36*
X7428229Y6437629D02*
G01*
X7428229Y6617970D01*
X7608570Y6617970D01*
X7608570Y6437629D01*
G37*
D27*
G01*
X7518400Y6273800D03*
G01*
X7518400Y6019800D03*
G36*
X2589529Y595629D02*
G01*
X2589529Y775970D01*
X2769870Y775970D01*
X2769870Y595629D01*
G37*
G01*
X2933700Y685800D03*
G01*
X3187700Y685800D03*
G36*
X6120129Y608329D02*
G01*
X6120129Y788670D01*
X6300470Y788670D01*
X6300470Y608329D01*
G37*
G01*
X6464300Y698500D03*
G01*
X6718300Y698500D03*
D28*
G01*
X3073400Y4444949D03*
G01*
X3327400Y4444949D03*
G01*
X3581400Y4444949D03*
G01*
X3835400Y4444949D03*
G01*
X4089400Y4444949D03*
G01*
X4343400Y4444949D03*
G01*
X4597400Y4444949D03*
G01*
X4851400Y4444949D03*
G01*
X5105400Y4444949D03*
G01*
X5359400Y4444949D03*
G01*
X5613400Y4444949D03*
G01*
X5867400Y4444949D03*
G01*
X6121400Y4444949D03*
G01*
X6375400Y4444949D03*
G36*
X6529324Y4337304D02*
G01*
X6529324Y4552695D01*
X6729475Y4552695D01*
X6729475Y4337304D01*
G37*
G01*
X3327400Y1904949D03*
G01*
X3581400Y1904949D03*
G01*
X3835400Y1904949D03*
G01*
X4089400Y1904949D03*
G01*
X4343400Y1904949D03*
G01*
X4597400Y1904949D03*
G01*
X4851400Y1904949D03*
G01*
X5105400Y1904949D03*
G01*
X5359400Y1904949D03*
G01*
X5613400Y1904949D03*
G01*
X5867400Y1904949D03*
G01*
X6121400Y1904949D03*
G01*
X6375400Y1904949D03*
G36*
X6529324Y1804670D02*
G01*
X6529324Y2005076D01*
X6729475Y2005076D01*
X6729475Y1804670D01*
G37*
G01*
X3073400Y1904949D03*
G36*
X4638040Y751839D02*
G01*
X4638040Y975360D01*
X4861559Y975360D01*
X4861559Y751839D01*
G37*
D32*
G01*
X5250179Y863600D03*
D33*
G01*
X4406900Y6096000D03*
G01*
X5422900Y6096000D03*
G01*
X4406900Y5702300D03*
G01*
X5422900Y5702300D03*
G01*
X5918200Y6515100D03*
G01*
X6934200Y6515100D03*
G01*
X5930900Y6108700D03*
G01*
X6946900Y6108700D03*
G01*
X5930900Y5715000D03*
G01*
X6946900Y5715000D03*
D34*
G01*
X2501900Y5823407D03*
G01*
X2981909Y6103391D03*
G01*
X2981909Y5523407D03*
D35*
G01*
X901700Y6515100D03*
G01*
X901700Y6261100D03*
G01*
X901700Y6007100D03*
G01*
X901700Y5753100D03*
G01*
X901700Y5499100D03*
G01*
X901700Y5245100D03*
D33*
G01*
X4406900Y6515100D03*
G01*
X5422900Y6515100D03*
M02*
