G04 Layer: TopSilkLayer*
G04 EasyEDA v6.4.12, 2020-12-31T12:21:15--5:00*
G04 99fc4708075f4ff381704a5e9c7ef7fe,db09687e621142cba360e7e147da6c3e,10*
G04 Gerber Generator version 0.2*
G04 Scale: 100 percent, Rotated: No, Reflected: No *
G04 Dimensions in millimeters *
G04 leading zeros omitted , absolute positions ,4 integer and 5 decimal *
%FSLAX45Y45*%
%MOMM*%

%ADD10C,0.2540*%
%ADD22C,0.4000*%
%ADD23C,0.2000*%
%ADD24C,0.2032*%
%ADD25C,0.1524*%

%LPD*%
G36*
X4041800Y3430015D02*
G01*
X4038041Y3429711D01*
X4033774Y3428949D01*
X4032148Y3428441D01*
X4030065Y3427374D01*
X4023969Y3422853D01*
X4014012Y3413963D01*
X3998823Y3399485D01*
X3947109Y3348126D01*
X3907790Y3308553D01*
X3868420Y3269386D01*
X3821988Y3222802D01*
X3805986Y3206292D01*
X3795877Y3195320D01*
X3792626Y3191459D01*
X3790391Y3188411D01*
X3788918Y3186023D01*
X3787901Y3183331D01*
X3787444Y3175050D01*
X3788765Y3167329D01*
X3791915Y3159963D01*
X3803904Y3143707D01*
X3921760Y3262071D01*
X4038854Y3378403D01*
X4111498Y3307537D01*
X4183379Y3235401D01*
X4214876Y3267151D01*
X4213301Y3269234D01*
X4201464Y3281934D01*
X4180128Y3303828D01*
X4151731Y3332175D01*
X4135628Y3347923D01*
X4092498Y3390900D01*
X4070553Y3412032D01*
X4062729Y3419043D01*
X4056532Y3424021D01*
X4051503Y3427323D01*
X4047337Y3429203D01*
X4043629Y3429965D01*
G37*
G36*
X4038854Y3344621D02*
G01*
X3930650Y3235401D01*
X3822192Y3126943D01*
X3853942Y3094939D01*
X3946651Y3187903D01*
X4040124Y3282645D01*
X4111751Y3210001D01*
X4183379Y3138373D01*
X4224274Y3178251D01*
X4264152Y3219399D01*
X4249420Y3235401D01*
X4233926Y3250895D01*
X4208526Y3225749D01*
X4183379Y3200349D01*
X4111498Y3272993D01*
G37*
G36*
X4040124Y3247847D02*
G01*
X3955796Y3162249D01*
X3871468Y3077159D01*
X3902710Y3045409D01*
X3972051Y3114243D01*
X4041394Y3184601D01*
X4084574Y3140405D01*
X4101541Y3123641D01*
X4113834Y3111906D01*
X4122318Y3104286D01*
X4128058Y3099917D01*
X4131970Y3097936D01*
X4140454Y3096971D01*
X4145279Y3095396D01*
X4149547Y3092958D01*
X4153204Y3089656D01*
X4156201Y3085592D01*
X4158386Y3080867D01*
X4159808Y3075584D01*
X4160265Y3069793D01*
X4159961Y3065424D01*
X4158843Y3061716D01*
X4156608Y3058160D01*
X4152900Y3054045D01*
X4149242Y3051098D01*
X4145889Y3049016D01*
X4142079Y3047847D01*
X4137151Y3047441D01*
X4131411Y3047898D01*
X4126331Y3049219D01*
X4121861Y3051302D01*
X4118051Y3054197D01*
X4115054Y3057804D01*
X4112818Y3062122D01*
X4111447Y3067050D01*
X4110736Y3074873D01*
X4109872Y3077311D01*
X4108094Y3080258D01*
X4105097Y3084068D01*
X4100728Y3089046D01*
X4086504Y3103829D01*
X4041394Y3149549D01*
X3980942Y3088589D01*
X3920490Y3028391D01*
X3934968Y3013659D01*
X3949192Y2999689D01*
X3980942Y3031286D01*
X3991051Y3041802D01*
X3994200Y3045561D01*
X3996334Y3048609D01*
X3997655Y3051200D01*
X3998315Y3053537D01*
X3998976Y3060954D01*
X4000449Y3065576D01*
X4002735Y3069691D01*
X4005681Y3073196D01*
X4009237Y3076092D01*
X4013250Y3078226D01*
X4017619Y3079597D01*
X4022140Y3080156D01*
X4026763Y3079851D01*
X4031335Y3078530D01*
X4035755Y3076244D01*
X4039870Y3072841D01*
X4043273Y3068726D01*
X4045610Y3064306D01*
X4046982Y3059684D01*
X4047337Y3055061D01*
X4046880Y3050489D01*
X4045508Y3046120D01*
X4043375Y3042056D01*
X4040530Y3038500D01*
X4036923Y3035503D01*
X4032707Y3033166D01*
X4027932Y3031693D01*
X4020312Y3031032D01*
X4018026Y3030372D01*
X4015536Y3029051D01*
X4012539Y3026918D01*
X4004106Y3019399D01*
X3990848Y3006293D01*
X3966718Y2981909D01*
X3981450Y2966923D01*
X3997198Y2951429D01*
X4028541Y2982569D01*
X4038498Y2992932D01*
X4041495Y2996539D01*
X4043527Y2999536D01*
X4044797Y3002127D01*
X4045508Y3004616D01*
X4047439Y3014014D01*
X4050182Y3019806D01*
X4053992Y3024530D01*
X4058615Y3028086D01*
X4063949Y3030372D01*
X4069740Y3031185D01*
X4075734Y3030524D01*
X4081779Y3028137D01*
X4087571Y3024632D01*
X4091432Y3019958D01*
X4093565Y3013862D01*
X4094226Y3006039D01*
X4094073Y3000298D01*
X4093210Y2996082D01*
X4091228Y2992424D01*
X4087622Y2988259D01*
X4083608Y2985211D01*
X4080205Y2983280D01*
X4076598Y2982214D01*
X4068724Y2981807D01*
X4066032Y2981401D01*
X4063441Y2980385D01*
X4060545Y2978505D01*
X4057040Y2975559D01*
X4046423Y2965450D01*
X4014470Y2933395D01*
X4026611Y2924759D01*
X4033469Y2922117D01*
X4040987Y2920949D01*
X4048760Y2921457D01*
X4050436Y2922016D01*
X4052519Y2923082D01*
X4058564Y2927502D01*
X4068318Y2936087D01*
X4083304Y2950159D01*
X4134307Y3000298D01*
X4200753Y3066694D01*
X4225798Y3092043D01*
X4265879Y3133445D01*
X4288942Y3157982D01*
X4292600Y3162249D01*
X4294327Y3168599D01*
X4294987Y3175406D01*
X4294428Y3182010D01*
X4291787Y3190138D01*
X4290263Y3192576D01*
X4281678Y3202381D01*
X4232402Y3152851D01*
X4183126Y3102559D01*
G37*
G36*
X1125626Y4357014D02*
G01*
X902868Y4276394D01*
X664108Y4190441D01*
X623112Y4175353D01*
X589229Y4162551D01*
X560628Y4138472D01*
X542137Y4102201D01*
X542137Y4079240D01*
X645769Y4079240D01*
X650595Y4085031D01*
X654050Y4087774D01*
X659892Y4090924D01*
X667359Y4094022D01*
X687273Y4100576D01*
X710793Y4108653D01*
X890676Y4173778D01*
X1126032Y4258462D01*
X1132332Y4260545D01*
X1136446Y4261408D01*
X1140815Y4261612D01*
X1145794Y4261053D01*
X1151839Y4259732D01*
X1159408Y4257497D01*
X1187551Y4247794D01*
X1539595Y4120743D01*
X1589735Y4103217D01*
X1605127Y4097578D01*
X1617878Y4092651D01*
X1626463Y4088942D01*
X1628698Y4087774D01*
X1635760Y4083354D01*
X1631086Y4079138D01*
X1629765Y4078274D01*
X1623314Y4075328D01*
X1597914Y4065117D01*
X1561084Y4051249D01*
X1332687Y3968343D01*
X1142136Y3898849D01*
X677875Y4067860D01*
X645769Y4079240D01*
X542137Y4079240D01*
X542137Y3506470D01*
X562508Y3463188D01*
X588213Y3446576D01*
X616407Y3430219D01*
X665581Y3402787D01*
X727506Y3368801D01*
X900797Y3274720D01*
X1189380Y3274720D01*
X1189380Y3817112D01*
X1248664Y3839210D01*
X1322832Y3866134D01*
X1582928Y3959555D01*
X1606702Y3968343D01*
X1626057Y3975811D01*
X1631137Y3976979D01*
X1636166Y3977640D01*
X1640586Y3977589D01*
X1650034Y3976674D01*
X1652473Y3533648D01*
X1647291Y3527348D01*
X1645513Y3525723D01*
X1638554Y3520744D01*
X1627987Y3514090D01*
X1615135Y3506571D01*
X1230274Y3296716D01*
X1189380Y3274720D01*
X900797Y3274720D01*
X1111351Y3159912D01*
X1161440Y3155746D01*
X1209852Y3180943D01*
X1248816Y3201822D01*
X1318310Y3239566D01*
X1400454Y3284524D01*
X1513738Y3346094D01*
X1701292Y3447491D01*
X1732635Y3479596D01*
X1742084Y3513632D01*
X1742135Y4097426D01*
X1732534Y4119981D01*
X1730044Y4124858D01*
X1724355Y4134053D01*
X1721205Y4138320D01*
X1717852Y4142384D01*
X1714296Y4146194D01*
X1710588Y4149750D01*
X1706727Y4153052D01*
X1702714Y4156049D01*
X1698548Y4158742D01*
X1692859Y4161891D01*
X1684985Y4165498D01*
X1673199Y4170324D01*
X1635506Y4184700D01*
X1574800Y4206849D01*
X1327048Y4296054D01*
X1168146Y4353712D01*
G37*
D24*
X533400Y2906268D02*
G01*
X533400Y2701797D01*
X547115Y2660650D01*
X574293Y2633471D01*
X615188Y2619755D01*
X642365Y2619755D01*
X683513Y2633471D01*
X710691Y2660650D01*
X724408Y2701797D01*
X724408Y2906268D01*
X814324Y2906268D02*
G01*
X814324Y2619755D01*
X814324Y2906268D02*
G01*
X909827Y2906268D01*
X950722Y2892552D01*
X977900Y2865373D01*
X991615Y2837942D01*
X1005331Y2797047D01*
X1005331Y2728976D01*
X991615Y2688081D01*
X977900Y2660650D01*
X950722Y2633471D01*
X909827Y2619755D01*
X814324Y2619755D01*
X1095247Y2906268D02*
G01*
X1095247Y2619755D01*
X1185163Y2906268D02*
G01*
X1185163Y2619755D01*
X1185163Y2906268D02*
G01*
X1376172Y2619755D01*
X1376172Y2906268D02*
G01*
X1376172Y2619755D01*
X1466088Y2906268D02*
G01*
X1466088Y2619755D01*
X1760727Y2837942D02*
G01*
X1747011Y2865373D01*
X1719834Y2892552D01*
X1692402Y2906268D01*
X1638045Y2906268D01*
X1610613Y2892552D01*
X1583436Y2865373D01*
X1569720Y2837942D01*
X1556004Y2797047D01*
X1556004Y2728976D01*
X1569720Y2688081D01*
X1583436Y2660650D01*
X1610613Y2633471D01*
X1638045Y2619755D01*
X1692402Y2619755D01*
X1719834Y2633471D01*
X1747011Y2660650D01*
X1760727Y2688081D01*
D25*
X1220977Y5766307D02*
G01*
X1215643Y5776721D01*
X1205229Y5787136D01*
X1195070Y5792215D01*
X1174241Y5792215D01*
X1163827Y5787136D01*
X1153413Y5776721D01*
X1148079Y5766307D01*
X1143000Y5750560D01*
X1143000Y5724652D01*
X1148079Y5709157D01*
X1153413Y5698744D01*
X1163827Y5688329D01*
X1174241Y5683250D01*
X1195070Y5683250D01*
X1205229Y5688329D01*
X1215643Y5698744D01*
X1220977Y5709157D01*
X1220977Y5724652D01*
X1195070Y5724652D02*
G01*
X1220977Y5724652D01*
X1255268Y5792215D02*
G01*
X1255268Y5683250D01*
X1255268Y5792215D02*
G01*
X1327911Y5683250D01*
X1327911Y5792215D02*
G01*
X1327911Y5683250D01*
X1362202Y5792215D02*
G01*
X1362202Y5683250D01*
X1362202Y5792215D02*
G01*
X1398524Y5792215D01*
X1414272Y5787136D01*
X1424686Y5776721D01*
X1429765Y5766307D01*
X1435100Y5750560D01*
X1435100Y5724652D01*
X1429765Y5709157D01*
X1424686Y5698744D01*
X1414272Y5688329D01*
X1398524Y5683250D01*
X1362202Y5683250D01*
X1143000Y6058915D02*
G01*
X1184656Y5949950D01*
X1226058Y6058915D02*
G01*
X1184656Y5949950D01*
X1338325Y6033007D02*
G01*
X1333245Y6043421D01*
X1322831Y6053836D01*
X1312418Y6058915D01*
X1291590Y6058915D01*
X1281175Y6053836D01*
X1270761Y6043421D01*
X1265681Y6033007D01*
X1260347Y6017260D01*
X1260347Y5991352D01*
X1265681Y5975857D01*
X1270761Y5965444D01*
X1281175Y5955029D01*
X1291590Y5949950D01*
X1312418Y5949950D01*
X1322831Y5955029D01*
X1333245Y5965444D01*
X1338325Y5975857D01*
X1450593Y6033007D02*
G01*
X1445259Y6043421D01*
X1435100Y6053836D01*
X1424686Y6058915D01*
X1403858Y6058915D01*
X1393443Y6053836D01*
X1383029Y6043421D01*
X1377950Y6033007D01*
X1372615Y6017260D01*
X1372615Y5991352D01*
X1377950Y5975857D01*
X1383029Y5965444D01*
X1393443Y5955029D01*
X1403858Y5949950D01*
X1424686Y5949950D01*
X1435100Y5955029D01*
X1445259Y5965444D01*
X1450593Y5975857D01*
X1215643Y6297421D02*
G01*
X1205229Y6307836D01*
X1189736Y6312915D01*
X1168908Y6312915D01*
X1153413Y6307836D01*
X1143000Y6297421D01*
X1143000Y6287007D01*
X1148079Y6276594D01*
X1153413Y6271260D01*
X1163827Y6266179D01*
X1195070Y6255765D01*
X1205229Y6250686D01*
X1210563Y6245352D01*
X1215643Y6234937D01*
X1215643Y6219444D01*
X1205229Y6209029D01*
X1189736Y6203950D01*
X1168908Y6203950D01*
X1153413Y6209029D01*
X1143000Y6219444D01*
X1249934Y6312915D02*
G01*
X1249934Y6203950D01*
X1249934Y6312915D02*
G01*
X1286509Y6312915D01*
X1302004Y6307836D01*
X1312418Y6297421D01*
X1317497Y6287007D01*
X1322831Y6271260D01*
X1322831Y6245352D01*
X1317497Y6229857D01*
X1312418Y6219444D01*
X1302004Y6209029D01*
X1286509Y6203950D01*
X1249934Y6203950D01*
X1398524Y6312915D02*
G01*
X1357122Y6203950D01*
X1398524Y6312915D02*
G01*
X1440179Y6203950D01*
X1372615Y6240271D02*
G01*
X1424686Y6240271D01*
X1215643Y6551421D02*
G01*
X1205229Y6561836D01*
X1189736Y6566915D01*
X1168908Y6566915D01*
X1153413Y6561836D01*
X1143000Y6551421D01*
X1143000Y6541007D01*
X1148079Y6530594D01*
X1153413Y6525260D01*
X1163827Y6520179D01*
X1195070Y6509765D01*
X1205229Y6504686D01*
X1210563Y6499352D01*
X1215643Y6488937D01*
X1215643Y6473444D01*
X1205229Y6463029D01*
X1189736Y6457950D01*
X1168908Y6457950D01*
X1153413Y6463029D01*
X1143000Y6473444D01*
X1327911Y6541007D02*
G01*
X1322831Y6551421D01*
X1312418Y6561836D01*
X1302004Y6566915D01*
X1281175Y6566915D01*
X1270761Y6561836D01*
X1260347Y6551421D01*
X1255268Y6541007D01*
X1249934Y6525260D01*
X1249934Y6499352D01*
X1255268Y6483857D01*
X1260347Y6473444D01*
X1270761Y6463029D01*
X1281175Y6457950D01*
X1302004Y6457950D01*
X1312418Y6463029D01*
X1322831Y6473444D01*
X1327911Y6483857D01*
X1362202Y6566915D02*
G01*
X1362202Y6457950D01*
X1362202Y6457950D02*
G01*
X1424686Y6457950D01*
X1155700Y5525515D02*
G01*
X1155700Y5416550D01*
X1189990Y5525515D02*
G01*
X1189990Y5416550D01*
X1189990Y5525515D02*
G01*
X1236725Y5525515D01*
X1252220Y5520436D01*
X1257554Y5515102D01*
X1262634Y5504687D01*
X1262634Y5494273D01*
X1257554Y5483860D01*
X1252220Y5478779D01*
X1236725Y5473700D01*
X1189990Y5473700D01*
X1226311Y5473700D02*
G01*
X1262634Y5416550D01*
X1328165Y5525515D02*
G01*
X1317752Y5520436D01*
X1307338Y5510021D01*
X1302258Y5499607D01*
X1296924Y5483860D01*
X1296924Y5457952D01*
X1302258Y5442457D01*
X1307338Y5432044D01*
X1317752Y5421629D01*
X1328165Y5416550D01*
X1348993Y5416550D01*
X1359408Y5421629D01*
X1369822Y5432044D01*
X1374902Y5442457D01*
X1380236Y5457952D01*
X1380236Y5483860D01*
X1374902Y5499607D01*
X1369822Y5510021D01*
X1359408Y5520436D01*
X1348993Y5525515D01*
X1328165Y5525515D01*
X1343659Y5437123D02*
G01*
X1374902Y5406136D01*
X1155700Y5271515D02*
G01*
X1155700Y5162550D01*
X1155700Y5271515D02*
G01*
X1202436Y5271515D01*
X1217929Y5266436D01*
X1223263Y5261102D01*
X1228343Y5250687D01*
X1228343Y5240273D01*
X1223263Y5229860D01*
X1217929Y5224779D01*
X1202436Y5219700D01*
X1155700Y5219700D01*
X1192022Y5219700D02*
G01*
X1228343Y5162550D01*
X1335531Y5256021D02*
G01*
X1325118Y5266436D01*
X1309370Y5271515D01*
X1288795Y5271515D01*
X1273047Y5266436D01*
X1262634Y5256021D01*
X1262634Y5245607D01*
X1267968Y5235194D01*
X1273047Y5229860D01*
X1283461Y5224779D01*
X1314704Y5214365D01*
X1325118Y5209286D01*
X1330197Y5203952D01*
X1335531Y5193537D01*
X1335531Y5178044D01*
X1325118Y5167629D01*
X1309370Y5162550D01*
X1288795Y5162550D01*
X1273047Y5167629D01*
X1262634Y5178044D01*
X1406143Y5271515D02*
G01*
X1406143Y5162550D01*
X1369822Y5271515D02*
G01*
X1442465Y5271515D01*
X1507997Y5271515D02*
G01*
X1497584Y5266436D01*
X1487170Y5256021D01*
X1482090Y5245607D01*
X1476756Y5229860D01*
X1476756Y5203952D01*
X1482090Y5188457D01*
X1487170Y5178044D01*
X1497584Y5167629D01*
X1507997Y5162550D01*
X1528825Y5162550D01*
X1539240Y5167629D01*
X1549400Y5178044D01*
X1554734Y5188457D01*
X1559813Y5203952D01*
X1559813Y5229860D01*
X1554734Y5245607D01*
X1549400Y5256021D01*
X1539240Y5266436D01*
X1528825Y5271515D01*
X1507997Y5271515D01*
X1523491Y5183123D02*
G01*
X1554734Y5152136D01*
D24*
X889000Y1219962D02*
G01*
X944372Y1090676D01*
X999743Y1219962D02*
G01*
X944372Y1090676D01*
X1060704Y1247647D02*
G01*
X1079245Y1256792D01*
X1106931Y1284478D01*
X1106931Y1090676D01*
X1177290Y1136650D02*
G01*
X1167891Y1127505D01*
X1177290Y1118362D01*
X1186434Y1127505D01*
X1177290Y1136650D01*
X1302765Y1284478D02*
G01*
X1275079Y1275334D01*
X1256538Y1247647D01*
X1247393Y1201420D01*
X1247393Y1173734D01*
X1256538Y1127505D01*
X1275079Y1099820D01*
X1302765Y1090676D01*
X1321308Y1090676D01*
X1348993Y1099820D01*
X1367536Y1127505D01*
X1376679Y1173734D01*
X1376679Y1201420D01*
X1367536Y1247647D01*
X1348993Y1275334D01*
X1321308Y1284478D01*
X1302765Y1284478D01*
X646429Y1593850D02*
G01*
X637286Y1612392D01*
X618743Y1630934D01*
X600456Y1640078D01*
X563372Y1640078D01*
X544829Y1630934D01*
X526541Y1612392D01*
X517143Y1593850D01*
X508000Y1566163D01*
X508000Y1520189D01*
X517143Y1492250D01*
X526541Y1473962D01*
X544829Y1455420D01*
X563372Y1446276D01*
X600456Y1446276D01*
X618743Y1455420D01*
X637286Y1473962D01*
X646429Y1492250D01*
X753618Y1575562D02*
G01*
X735329Y1566163D01*
X716788Y1547876D01*
X707390Y1520189D01*
X707390Y1501647D01*
X716788Y1473962D01*
X735329Y1455420D01*
X753618Y1446276D01*
X781304Y1446276D01*
X799845Y1455420D01*
X818388Y1473962D01*
X827531Y1501647D01*
X827531Y1520189D01*
X818388Y1547876D01*
X799845Y1566163D01*
X781304Y1575562D01*
X753618Y1575562D01*
X888491Y1575562D02*
G01*
X888491Y1446276D01*
X888491Y1538478D02*
G01*
X916177Y1566163D01*
X934720Y1575562D01*
X962406Y1575562D01*
X980947Y1566163D01*
X990091Y1538478D01*
X990091Y1446276D01*
X1078738Y1640078D02*
G01*
X1078738Y1483105D01*
X1088136Y1455420D01*
X1106424Y1446276D01*
X1124965Y1446276D01*
X1051052Y1575562D02*
G01*
X1115822Y1575562D01*
X1185925Y1575562D02*
G01*
X1185925Y1446276D01*
X1185925Y1520189D02*
G01*
X1195070Y1547876D01*
X1213611Y1566163D01*
X1232154Y1575562D01*
X1259840Y1575562D01*
X1367027Y1575562D02*
G01*
X1348486Y1566163D01*
X1329943Y1547876D01*
X1320800Y1520189D01*
X1320800Y1501647D01*
X1329943Y1473962D01*
X1348486Y1455420D01*
X1367027Y1446276D01*
X1394713Y1446276D01*
X1413256Y1455420D01*
X1431543Y1473962D01*
X1440941Y1501647D01*
X1440941Y1520189D01*
X1431543Y1547876D01*
X1413256Y1566163D01*
X1394713Y1575562D01*
X1367027Y1575562D01*
X1501902Y1640078D02*
G01*
X1501902Y1446276D01*
X1562861Y1640078D02*
G01*
X1562861Y1446276D01*
X1623822Y1520189D02*
G01*
X1734565Y1520189D01*
X1734565Y1538478D01*
X1725422Y1557020D01*
X1716024Y1566163D01*
X1697736Y1575562D01*
X1670050Y1575562D01*
X1651508Y1566163D01*
X1632965Y1547876D01*
X1623822Y1520189D01*
X1623822Y1501647D01*
X1632965Y1473962D01*
X1651508Y1455420D01*
X1670050Y1446276D01*
X1697736Y1446276D01*
X1716024Y1455420D01*
X1734565Y1473962D01*
X1795525Y1575562D02*
G01*
X1795525Y1446276D01*
X1795525Y1520189D02*
G01*
X1804670Y1547876D01*
X1823211Y1566163D01*
X1841754Y1575562D01*
X1869440Y1575562D01*
X421386Y1929892D02*
G01*
X402843Y1948434D01*
X375158Y1957578D01*
X338327Y1957578D01*
X310641Y1948434D01*
X292100Y1929892D01*
X292100Y1911350D01*
X301243Y1893062D01*
X310641Y1883663D01*
X328929Y1874520D01*
X384556Y1855978D01*
X402843Y1846834D01*
X412241Y1837689D01*
X421386Y1819147D01*
X421386Y1791462D01*
X402843Y1772920D01*
X375158Y1763776D01*
X338327Y1763776D01*
X310641Y1772920D01*
X292100Y1791462D01*
X482345Y1893062D02*
G01*
X482345Y1763776D01*
X482345Y1855978D02*
G01*
X510031Y1883663D01*
X528574Y1893062D01*
X556259Y1893062D01*
X574802Y1883663D01*
X583945Y1855978D01*
X583945Y1763776D01*
X583945Y1855978D02*
G01*
X611631Y1883663D01*
X630174Y1893062D01*
X657859Y1893062D01*
X676402Y1883663D01*
X685545Y1855978D01*
X685545Y1763776D01*
X857250Y1893062D02*
G01*
X857250Y1763776D01*
X857250Y1865376D02*
G01*
X838961Y1883663D01*
X820420Y1893062D01*
X792734Y1893062D01*
X774191Y1883663D01*
X755650Y1865376D01*
X746506Y1837689D01*
X746506Y1819147D01*
X755650Y1791462D01*
X774191Y1772920D01*
X792734Y1763776D01*
X820420Y1763776D01*
X838961Y1772920D01*
X857250Y1791462D01*
X918209Y1893062D02*
G01*
X918209Y1763776D01*
X918209Y1837689D02*
G01*
X927608Y1865376D01*
X946150Y1883663D01*
X964438Y1893062D01*
X992124Y1893062D01*
X1080770Y1957578D02*
G01*
X1080770Y1800605D01*
X1090168Y1772920D01*
X1108709Y1763776D01*
X1126997Y1763776D01*
X1053084Y1893062D02*
G01*
X1117854Y1893062D01*
X1459484Y1929892D02*
G01*
X1441195Y1948434D01*
X1413509Y1957578D01*
X1376425Y1957578D01*
X1348740Y1948434D01*
X1330197Y1929892D01*
X1330197Y1911350D01*
X1339595Y1893062D01*
X1348740Y1883663D01*
X1367281Y1874520D01*
X1422654Y1855978D01*
X1441195Y1846834D01*
X1450340Y1837689D01*
X1459484Y1819147D01*
X1459484Y1791462D01*
X1441195Y1772920D01*
X1413509Y1763776D01*
X1376425Y1763776D01*
X1348740Y1772920D01*
X1330197Y1791462D01*
X1520443Y1957578D02*
G01*
X1520443Y1763776D01*
X1520443Y1855978D02*
G01*
X1548129Y1883663D01*
X1566672Y1893062D01*
X1594358Y1893062D01*
X1612900Y1883663D01*
X1622043Y1855978D01*
X1622043Y1763776D01*
X1794002Y1893062D02*
G01*
X1794002Y1763776D01*
X1794002Y1865376D02*
G01*
X1775459Y1883663D01*
X1756918Y1893062D01*
X1729231Y1893062D01*
X1710690Y1883663D01*
X1692402Y1865376D01*
X1683004Y1837689D01*
X1683004Y1819147D01*
X1692402Y1791462D01*
X1710690Y1772920D01*
X1729231Y1763776D01*
X1756918Y1763776D01*
X1775459Y1772920D01*
X1794002Y1791462D01*
X1965706Y1957578D02*
G01*
X1965706Y1763776D01*
X1965706Y1865376D02*
G01*
X1947163Y1883663D01*
X1928875Y1893062D01*
X1901190Y1893062D01*
X1882647Y1883663D01*
X1864106Y1865376D01*
X1854961Y1837689D01*
X1854961Y1819147D01*
X1864106Y1791462D01*
X1882647Y1772920D01*
X1901190Y1763776D01*
X1928875Y1763776D01*
X1947163Y1772920D01*
X1965706Y1791462D01*
X2026665Y1837689D02*
G01*
X2137409Y1837689D01*
X2137409Y1855978D01*
X2128265Y1874520D01*
X2119122Y1883663D01*
X2100579Y1893062D01*
X2072893Y1893062D01*
X2054352Y1883663D01*
X2035809Y1865376D01*
X2026665Y1837689D01*
X2026665Y1819147D01*
X2035809Y1791462D01*
X2054352Y1772920D01*
X2072893Y1763776D01*
X2100579Y1763776D01*
X2119122Y1772920D01*
X2137409Y1791462D01*
D25*
X7798815Y6451600D02*
G01*
X7689850Y6451600D01*
X7798815Y6451600D02*
G01*
X7798815Y6404863D01*
X7793736Y6389370D01*
X7788402Y6384036D01*
X7777988Y6378955D01*
X7767574Y6378955D01*
X7757159Y6384036D01*
X7752079Y6389370D01*
X7747000Y6404863D01*
X7747000Y6451600D02*
G01*
X7747000Y6404863D01*
X7741665Y6389370D01*
X7736586Y6384036D01*
X7726172Y6378955D01*
X7710424Y6378955D01*
X7700009Y6384036D01*
X7694929Y6389370D01*
X7689850Y6404863D01*
X7689850Y6451600D01*
X7798815Y6308089D02*
G01*
X7689850Y6308089D01*
X7798815Y6344665D02*
G01*
X7798815Y6271768D01*
X7798815Y6237478D02*
G01*
X7689850Y6237478D01*
X7798815Y6237478D02*
G01*
X7689850Y6164834D01*
X7798815Y6164834D02*
G01*
X7689850Y6164834D01*
X7783322Y6057900D02*
G01*
X7793736Y6068060D01*
X7798815Y6083807D01*
X7798815Y6104636D01*
X7793736Y6120129D01*
X7783322Y6130544D01*
X7772908Y6130544D01*
X7762493Y6125210D01*
X7757159Y6120129D01*
X7752079Y6109715D01*
X7741665Y6078473D01*
X7736586Y6068060D01*
X7731252Y6062979D01*
X7720838Y6057900D01*
X7705343Y6057900D01*
X7694929Y6068060D01*
X7689850Y6083807D01*
X7689850Y6104636D01*
X7694929Y6120129D01*
X7705343Y6130544D01*
X2752343Y988821D02*
G01*
X2741929Y999236D01*
X2726436Y1004315D01*
X2705608Y1004315D01*
X2690113Y999236D01*
X2679700Y988821D01*
X2679700Y978407D01*
X2684779Y967994D01*
X2690113Y962660D01*
X2700527Y957579D01*
X2731770Y947165D01*
X2741929Y942086D01*
X2747263Y936752D01*
X2752343Y926337D01*
X2752343Y910844D01*
X2741929Y900429D01*
X2726436Y895350D01*
X2705608Y895350D01*
X2690113Y900429D01*
X2679700Y910844D01*
X2786634Y1004315D02*
G01*
X2786634Y895350D01*
X2786634Y1004315D02*
G01*
X2854197Y1004315D01*
X2786634Y952500D02*
G01*
X2828290Y952500D01*
X2786634Y895350D02*
G01*
X2854197Y895350D01*
X2888488Y1004315D02*
G01*
X2888488Y895350D01*
X2888488Y1004315D02*
G01*
X2935224Y1004315D01*
X2950972Y999236D01*
X2956052Y993902D01*
X2961386Y983487D01*
X2961386Y973073D01*
X2956052Y962660D01*
X2950972Y957579D01*
X2935224Y952500D01*
X2888488Y952500D01*
X2924809Y952500D02*
G01*
X2961386Y895350D01*
X2995675Y1004315D02*
G01*
X3037077Y895350D01*
X3078734Y1004315D02*
G01*
X3037077Y895350D01*
X3144265Y1004315D02*
G01*
X3133852Y999236D01*
X3123438Y988821D01*
X3118104Y978407D01*
X3113024Y962660D01*
X3113024Y936752D01*
X3118104Y921257D01*
X3123438Y910844D01*
X3133852Y900429D01*
X3144265Y895350D01*
X3164840Y895350D01*
X3175254Y900429D01*
X3185668Y910844D01*
X3191002Y921257D01*
X3196081Y936752D01*
X3196081Y962660D01*
X3191002Y978407D01*
X3185668Y988821D01*
X3175254Y999236D01*
X3164840Y1004315D01*
X3144265Y1004315D01*
X6121400Y1017015D02*
G01*
X6121400Y908050D01*
X6121400Y1017015D02*
G01*
X6168136Y1017015D01*
X6183629Y1011936D01*
X6188963Y1006602D01*
X6194043Y996187D01*
X6194043Y985773D01*
X6188963Y975360D01*
X6183629Y970279D01*
X6168136Y965200D01*
X6121400Y965200D02*
G01*
X6168136Y965200D01*
X6183629Y959865D01*
X6188963Y954786D01*
X6194043Y944371D01*
X6194043Y928623D01*
X6188963Y918210D01*
X6183629Y913129D01*
X6168136Y908050D01*
X6121400Y908050D01*
X6228334Y1017015D02*
G01*
X6228334Y908050D01*
X6228334Y1017015D02*
G01*
X6295897Y1017015D01*
X6228334Y965200D02*
G01*
X6269990Y965200D01*
X6228334Y908050D02*
G01*
X6295897Y908050D01*
X6408165Y991107D02*
G01*
X6403086Y1001521D01*
X6392672Y1011936D01*
X6382258Y1017015D01*
X6361429Y1017015D01*
X6351015Y1011936D01*
X6340602Y1001521D01*
X6335522Y991107D01*
X6330188Y975360D01*
X6330188Y949452D01*
X6335522Y933957D01*
X6340602Y923544D01*
X6351015Y913129D01*
X6361429Y908050D01*
X6382258Y908050D01*
X6392672Y913129D01*
X6403086Y923544D01*
X6408165Y933957D01*
X6442456Y954786D02*
G01*
X6535927Y954786D01*
X6601459Y1017015D02*
G01*
X6591045Y1011936D01*
X6580631Y1001521D01*
X6575552Y991107D01*
X6570218Y975360D01*
X6570218Y949452D01*
X6575552Y933957D01*
X6580631Y923544D01*
X6591045Y913129D01*
X6601459Y908050D01*
X6622288Y908050D01*
X6632702Y913129D01*
X6643115Y923544D01*
X6648195Y933957D01*
X6653529Y949452D01*
X6653529Y975360D01*
X6648195Y991107D01*
X6643115Y1001521D01*
X6632702Y1011936D01*
X6622288Y1017015D01*
X6601459Y1017015D01*
X6687820Y1017015D02*
G01*
X6687820Y939037D01*
X6692900Y923544D01*
X6703313Y913129D01*
X6718808Y908050D01*
X6729222Y908050D01*
X6744970Y913129D01*
X6755129Y923544D01*
X6760463Y939037D01*
X6760463Y1017015D01*
X6831075Y1017015D02*
G01*
X6831075Y908050D01*
X6794754Y1017015D02*
G01*
X6867397Y1017015D01*
X2234184Y3073450D02*
G01*
X2343150Y3073450D01*
X2234184Y3073450D02*
G01*
X2234184Y3141014D01*
X2286000Y3073450D02*
G01*
X2286000Y3114852D01*
X2343150Y3073450D02*
G01*
X2343150Y3141014D01*
X2249677Y3247948D02*
G01*
X2239263Y3237534D01*
X2234184Y3222040D01*
X2234184Y3201212D01*
X2239263Y3185718D01*
X2249677Y3175304D01*
X2260091Y3175304D01*
X2270506Y3180384D01*
X2275840Y3185718D01*
X2280920Y3196132D01*
X2291334Y3227120D01*
X2296413Y3237534D01*
X2301747Y3242868D01*
X2312161Y3247948D01*
X2327656Y3247948D01*
X2338070Y3237534D01*
X2343150Y3222040D01*
X2343150Y3201212D01*
X2338070Y3185718D01*
X2327656Y3175304D01*
X2234184Y3282238D02*
G01*
X2343150Y3282238D01*
X2234184Y3282238D02*
G01*
X2234184Y3328974D01*
X2239263Y3344722D01*
X2244597Y3349802D01*
X2255011Y3354882D01*
X2270506Y3354882D01*
X2280920Y3349802D01*
X2286000Y3344722D01*
X2291334Y3328974D01*
X2291334Y3282238D01*
X2234184Y3399586D02*
G01*
X2234184Y3456736D01*
X2275840Y3425748D01*
X2275840Y3441242D01*
X2280920Y3451656D01*
X2286000Y3456736D01*
X2301747Y3462070D01*
X2312161Y3462070D01*
X2327656Y3456736D01*
X2338070Y3446322D01*
X2343150Y3430828D01*
X2343150Y3415334D01*
X2338070Y3399586D01*
X2332990Y3394506D01*
X2322575Y3389172D01*
X2260091Y3501440D02*
G01*
X2255011Y3501440D01*
X2244597Y3506774D01*
X2239263Y3511854D01*
X2234184Y3522268D01*
X2234184Y3543096D01*
X2239263Y3553510D01*
X2244597Y3558590D01*
X2255011Y3563924D01*
X2265425Y3563924D01*
X2275840Y3558590D01*
X2291334Y3548176D01*
X2343150Y3496360D01*
X2343150Y3569004D01*
D24*
X6591297Y2044649D02*
G01*
X6664195Y2072335D01*
X6591297Y2100021D02*
G01*
X6664195Y2072335D01*
X6591297Y2122881D02*
G01*
X6664195Y2122881D01*
X6591297Y2145741D02*
G01*
X6664195Y2145741D01*
X6591297Y2145741D02*
G01*
X6664195Y2194255D01*
X6591297Y2194255D02*
G01*
X6664195Y2194255D01*
X7474201Y3298647D02*
G01*
X7405875Y3298647D01*
X7392413Y3294075D01*
X7383269Y3284931D01*
X7378697Y3271469D01*
X7378697Y3262325D01*
X7383269Y3248609D01*
X7392413Y3239465D01*
X7405875Y3234893D01*
X7474201Y3234893D01*
X7460739Y3141421D02*
G01*
X7469629Y3150565D01*
X7474201Y3164027D01*
X7474201Y3182315D01*
X7469629Y3196031D01*
X7460739Y3204921D01*
X7451341Y3204921D01*
X7442197Y3200349D01*
X7437879Y3196031D01*
X7433053Y3186887D01*
X7424163Y3159455D01*
X7419591Y3150565D01*
X7415019Y3145993D01*
X7405875Y3141421D01*
X7392413Y3141421D01*
X7383269Y3150565D01*
X7378697Y3164027D01*
X7378697Y3182315D01*
X7383269Y3196031D01*
X7392413Y3204921D01*
X7474201Y3111449D02*
G01*
X7378697Y3111449D01*
X7474201Y3111449D02*
G01*
X7474201Y3070555D01*
X7469629Y3056839D01*
X7464803Y3052267D01*
X7455913Y3047695D01*
X7446769Y3047695D01*
X7437879Y3052267D01*
X7433053Y3056839D01*
X7428989Y3070555D01*
X7428989Y3111449D02*
G01*
X7428989Y3070555D01*
X7424163Y3056839D01*
X7419591Y3052267D01*
X7410447Y3047695D01*
X7397239Y3047695D01*
X7387841Y3052267D01*
X7383269Y3056839D01*
X7378697Y3070555D01*
X7378697Y3111449D01*
X7264397Y3451047D02*
G01*
X7200897Y3451047D01*
X7246109Y3451047D02*
G01*
X7260079Y3437331D01*
X7264397Y3428441D01*
X7264397Y3414725D01*
X7260079Y3405581D01*
X7246109Y3401009D01*
X7200897Y3401009D01*
X7246109Y3401009D02*
G01*
X7260079Y3387293D01*
X7264397Y3378403D01*
X7264397Y3364687D01*
X7260079Y3355543D01*
X7246109Y3350971D01*
X7200897Y3350971D01*
X7296401Y3320999D02*
G01*
X7291829Y3316427D01*
X7296401Y3311855D01*
X7300719Y3316427D01*
X7296401Y3320999D01*
X7264397Y3316427D02*
G01*
X7200897Y3316427D01*
X7250935Y3227527D02*
G01*
X7260079Y3236417D01*
X7264397Y3245561D01*
X7264397Y3259277D01*
X7260079Y3268421D01*
X7250935Y3277311D01*
X7237219Y3281883D01*
X7227821Y3281883D01*
X7214359Y3277311D01*
X7205469Y3268421D01*
X7200897Y3259277D01*
X7200897Y3245561D01*
X7205469Y3236417D01*
X7214359Y3227527D01*
X7264397Y3197301D02*
G01*
X7200897Y3197301D01*
X7237219Y3197301D02*
G01*
X7250935Y3192983D01*
X7260079Y3183839D01*
X7264397Y3174695D01*
X7264397Y3160979D01*
X7264397Y3108401D02*
G01*
X7260079Y3117291D01*
X7250935Y3126435D01*
X7237219Y3131007D01*
X7227821Y3131007D01*
X7214359Y3126435D01*
X7205469Y3117291D01*
X7200897Y3108401D01*
X7200897Y3094685D01*
X7205469Y3085541D01*
X7214359Y3076397D01*
X7227821Y3072079D01*
X7237219Y3072079D01*
X7250935Y3076397D01*
X7260079Y3085541D01*
X7264397Y3094685D01*
X7264397Y3108401D01*
X7296401Y2972003D02*
G01*
X7200897Y2972003D01*
X7296401Y2972003D02*
G01*
X7296401Y2931109D01*
X7291829Y2917393D01*
X7287257Y2912821D01*
X7277859Y2908249D01*
X7268969Y2908249D01*
X7260079Y2912821D01*
X7255507Y2917393D01*
X7250935Y2931109D01*
X7250935Y2972003D02*
G01*
X7250935Y2931109D01*
X7246109Y2917393D01*
X7241791Y2912821D01*
X7232647Y2908249D01*
X7219185Y2908249D01*
X7210041Y2912821D01*
X7205469Y2917393D01*
X7200897Y2931109D01*
X7200897Y2972003D01*
X3403597Y2641549D02*
G01*
X3489449Y2641549D01*
X3403597Y2641549D02*
G01*
X3403597Y2694635D01*
X3444491Y2641549D02*
G01*
X3444491Y2674315D01*
X3489449Y2641549D02*
G01*
X3489449Y2694635D01*
X3415789Y2778963D02*
G01*
X3407661Y2770835D01*
X3403597Y2758643D01*
X3403597Y2742133D01*
X3407661Y2729941D01*
X3415789Y2721813D01*
X3423917Y2721813D01*
X3432045Y2725877D01*
X3436363Y2729941D01*
X3440427Y2738069D01*
X3448555Y2762707D01*
X3452619Y2770835D01*
X3456683Y2774899D01*
X3464811Y2778963D01*
X3477257Y2778963D01*
X3485385Y2770835D01*
X3489449Y2758643D01*
X3489449Y2742133D01*
X3485385Y2729941D01*
X3477257Y2721813D01*
X3403597Y2805887D02*
G01*
X3489449Y2805887D01*
X3403597Y2805887D02*
G01*
X3403597Y2842717D01*
X3407661Y2855163D01*
X3411725Y2859227D01*
X3419853Y2863291D01*
X3432045Y2863291D01*
X3440427Y2859227D01*
X3444491Y2855163D01*
X3448555Y2842717D01*
X3448555Y2805887D01*
X3452619Y2890215D02*
G01*
X3452619Y2963875D01*
X3403597Y2990799D02*
G01*
X3489449Y3011373D01*
X3403597Y3031947D02*
G01*
X3489449Y3011373D01*
X3403597Y3031947D02*
G01*
X3489449Y3052267D01*
X3403597Y3072841D02*
G01*
X3489449Y3052267D01*
X3403597Y3099765D02*
G01*
X3489449Y3099765D01*
X3403597Y3099765D02*
G01*
X3403597Y3136595D01*
X3407661Y3148787D01*
X3411725Y3152851D01*
X3419853Y3156915D01*
X3427981Y3156915D01*
X3436363Y3152851D01*
X3440427Y3148787D01*
X3444491Y3136595D01*
X3444491Y3099765D01*
X3444491Y3128467D02*
G01*
X3489449Y3156915D01*
X3403597Y3208477D02*
G01*
X3407661Y3200349D01*
X3415789Y3192221D01*
X3423917Y3188157D01*
X3436363Y3184093D01*
X3456683Y3184093D01*
X3468875Y3188157D01*
X3477257Y3192221D01*
X3485385Y3200349D01*
X3489449Y3208477D01*
X3489449Y3224987D01*
X3485385Y3233115D01*
X3477257Y3241243D01*
X3468875Y3245307D01*
X3456683Y3249371D01*
X3436363Y3249371D01*
X3423917Y3245307D01*
X3415789Y3241243D01*
X3407661Y3233115D01*
X3403597Y3224987D01*
X3403597Y3208477D01*
X3403597Y3300933D02*
G01*
X3407661Y3292805D01*
X3415789Y3284677D01*
X3423917Y3280613D01*
X3436363Y3276549D01*
X3456683Y3276549D01*
X3468875Y3280613D01*
X3477257Y3284677D01*
X3485385Y3292805D01*
X3489449Y3300933D01*
X3489449Y3317443D01*
X3485385Y3325571D01*
X3477257Y3333699D01*
X3468875Y3337763D01*
X3456683Y3341827D01*
X3436363Y3341827D01*
X3423917Y3337763D01*
X3415789Y3333699D01*
X3407661Y3325571D01*
X3403597Y3317443D01*
X3403597Y3300933D01*
X3403597Y3369005D02*
G01*
X3489449Y3369005D01*
X3403597Y3369005D02*
G01*
X3489449Y3401517D01*
X3403597Y3434283D02*
G01*
X3489449Y3401517D01*
X3403597Y3434283D02*
G01*
X3489449Y3434283D01*
X3452619Y3461461D02*
G01*
X3452619Y3535121D01*
X3403597Y3570173D02*
G01*
X3403597Y3615131D01*
X3436363Y3590747D01*
X3436363Y3602939D01*
X3440427Y3611067D01*
X3444491Y3615131D01*
X3456683Y3619195D01*
X3464811Y3619195D01*
X3477257Y3615131D01*
X3485385Y3607003D01*
X3489449Y3594811D01*
X3489449Y3582365D01*
X3485385Y3570173D01*
X3481321Y3566109D01*
X3473193Y3562045D01*
X3423917Y3650437D02*
G01*
X3419853Y3650437D01*
X3411725Y3654501D01*
X3407661Y3658565D01*
X3403597Y3666693D01*
X3403597Y3683203D01*
X3407661Y3691331D01*
X3411725Y3695395D01*
X3419853Y3699459D01*
X3427981Y3699459D01*
X3436363Y3695395D01*
X3448555Y3687267D01*
X3489449Y3646373D01*
X3489449Y3703523D01*
X6354823Y2096719D02*
G01*
X6347711Y2093163D01*
X6340853Y2086305D01*
X6337297Y2079193D01*
X6337297Y2065477D01*
X6340853Y2058619D01*
X6347711Y2051507D01*
X6354823Y2048205D01*
X6364983Y2044649D01*
X6382509Y2044649D01*
X6392923Y2048205D01*
X6399781Y2051507D01*
X6406639Y2058619D01*
X6410195Y2065477D01*
X6410195Y2079193D01*
X6406639Y2086305D01*
X6399781Y2093163D01*
X6392923Y2096719D01*
X6382509Y2096719D01*
X6382509Y2079193D02*
G01*
X6382509Y2096719D01*
X6337297Y2119579D02*
G01*
X6410195Y2119579D01*
X6337297Y2119579D02*
G01*
X6410195Y2167839D01*
X6337297Y2167839D02*
G01*
X6410195Y2167839D01*
X6337297Y2190699D02*
G01*
X6410195Y2190699D01*
X6337297Y2190699D02*
G01*
X6337297Y2215083D01*
X6340853Y2225497D01*
X6347711Y2232355D01*
X6354823Y2235911D01*
X6364983Y2239213D01*
X6382509Y2239213D01*
X6392923Y2235911D01*
X6399781Y2232355D01*
X6406639Y2225497D01*
X6410195Y2215083D01*
X6410195Y2190699D01*
X6083297Y2044654D02*
G01*
X6156195Y2044654D01*
X6083297Y2044654D02*
G01*
X6083297Y2068784D01*
X6086853Y2079198D01*
X6093711Y2086310D01*
X6100823Y2089612D01*
X6110983Y2093168D01*
X6128509Y2093168D01*
X6138923Y2089612D01*
X6145781Y2086310D01*
X6152639Y2079198D01*
X6156195Y2068784D01*
X6156195Y2044654D01*
X6097267Y2116028D02*
G01*
X6093711Y2122886D01*
X6083297Y2133300D01*
X6156195Y2133300D01*
X6083297Y2163018D02*
G01*
X6083297Y2201118D01*
X6110983Y2180544D01*
X6110983Y2190704D01*
X6114539Y2197816D01*
X6118095Y2201118D01*
X6128509Y2204674D01*
X6135367Y2204674D01*
X6145781Y2201118D01*
X6152639Y2194260D01*
X6156195Y2183846D01*
X6156195Y2173432D01*
X6152639Y2163018D01*
X6149083Y2159716D01*
X6142225Y2156160D01*
X5829297Y2044654D02*
G01*
X5902195Y2044654D01*
X5829297Y2044654D02*
G01*
X5829297Y2068784D01*
X5832853Y2079198D01*
X5839711Y2086310D01*
X5846823Y2089612D01*
X5856983Y2093168D01*
X5874509Y2093168D01*
X5884923Y2089612D01*
X5891781Y2086310D01*
X5898639Y2079198D01*
X5902195Y2068784D01*
X5902195Y2044654D01*
X5843267Y2116028D02*
G01*
X5839711Y2122886D01*
X5829297Y2133300D01*
X5902195Y2133300D01*
X5846823Y2159716D02*
G01*
X5843267Y2159716D01*
X5836409Y2163018D01*
X5832853Y2166574D01*
X5829297Y2173432D01*
X5829297Y2187402D01*
X5832853Y2194260D01*
X5836409Y2197816D01*
X5843267Y2201118D01*
X5850125Y2201118D01*
X5856983Y2197816D01*
X5867397Y2190704D01*
X5902195Y2156160D01*
X5902195Y2204674D01*
X5575297Y2044651D02*
G01*
X5648195Y2044651D01*
X5575297Y2044651D02*
G01*
X5575297Y2068781D01*
X5578853Y2079195D01*
X5585711Y2086307D01*
X5592823Y2089609D01*
X5602983Y2093165D01*
X5620509Y2093165D01*
X5630923Y2089609D01*
X5637781Y2086307D01*
X5644639Y2079195D01*
X5648195Y2068781D01*
X5648195Y2044651D01*
X5589267Y2116025D02*
G01*
X5585711Y2122883D01*
X5575297Y2133297D01*
X5648195Y2133297D01*
X5575297Y2190701D02*
G01*
X5623811Y2156157D01*
X5623811Y2208227D01*
X5575297Y2190701D02*
G01*
X5648195Y2190701D01*
X5317743Y2044651D02*
G01*
X5390641Y2044651D01*
X5317743Y2044651D02*
G01*
X5317743Y2068781D01*
X5321300Y2079195D01*
X5328158Y2086307D01*
X5335270Y2089609D01*
X5345429Y2093165D01*
X5362956Y2093165D01*
X5373370Y2089609D01*
X5380227Y2086307D01*
X5387086Y2079195D01*
X5390641Y2068781D01*
X5390641Y2044651D01*
X5335270Y2119581D02*
G01*
X5331713Y2119581D01*
X5324856Y2122883D01*
X5321300Y2126439D01*
X5317743Y2133297D01*
X5317743Y2147267D01*
X5321300Y2154125D01*
X5324856Y2157681D01*
X5331713Y2160983D01*
X5338572Y2160983D01*
X5345429Y2157681D01*
X5355843Y2150569D01*
X5390641Y2116025D01*
X5390641Y2164539D01*
X5317743Y2235913D02*
G01*
X5390641Y2201115D01*
X5317743Y2187399D02*
G01*
X5317743Y2235913D01*
X5067297Y2044649D02*
G01*
X5140195Y2044649D01*
X5067297Y2044649D02*
G01*
X5067297Y2068779D01*
X5070853Y2079193D01*
X5077711Y2086305D01*
X5084823Y2089607D01*
X5094983Y2093163D01*
X5112509Y2093163D01*
X5122923Y2089607D01*
X5129781Y2086305D01*
X5136639Y2079193D01*
X5140195Y2068779D01*
X5140195Y2044649D01*
X5084823Y2119579D02*
G01*
X5081267Y2119579D01*
X5074409Y2122881D01*
X5070853Y2126437D01*
X5067297Y2133295D01*
X5067297Y2147265D01*
X5070853Y2154123D01*
X5074409Y2157679D01*
X5081267Y2160981D01*
X5088125Y2160981D01*
X5094983Y2157679D01*
X5105397Y2150567D01*
X5140195Y2116023D01*
X5140195Y2164537D01*
X5077711Y2228799D02*
G01*
X5070853Y2225497D01*
X5067297Y2215083D01*
X5067297Y2208225D01*
X5070853Y2197811D01*
X5081267Y2190699D01*
X5098539Y2187397D01*
X5115811Y2187397D01*
X5129781Y2190699D01*
X5136639Y2197811D01*
X5140195Y2208225D01*
X5140195Y2211527D01*
X5136639Y2221941D01*
X5129781Y2228799D01*
X5119367Y2232355D01*
X5115811Y2232355D01*
X5105397Y2228799D01*
X5098539Y2221941D01*
X5094983Y2211527D01*
X5094983Y2208225D01*
X5098539Y2197811D01*
X5105397Y2190699D01*
X5115811Y2187397D01*
X4813297Y2044654D02*
G01*
X4886195Y2044654D01*
X4813297Y2044654D02*
G01*
X4813297Y2068784D01*
X4816853Y2079198D01*
X4823711Y2086310D01*
X4830823Y2089612D01*
X4840983Y2093168D01*
X4858509Y2093168D01*
X4868923Y2089612D01*
X4875781Y2086310D01*
X4882639Y2079198D01*
X4886195Y2068784D01*
X4886195Y2044654D01*
X4830823Y2119584D02*
G01*
X4827267Y2119584D01*
X4820409Y2122886D01*
X4816853Y2126442D01*
X4813297Y2133300D01*
X4813297Y2147270D01*
X4816853Y2154128D01*
X4820409Y2157684D01*
X4827267Y2160986D01*
X4834125Y2160986D01*
X4840983Y2157684D01*
X4851397Y2150572D01*
X4886195Y2116028D01*
X4886195Y2164542D01*
X4813297Y2228804D02*
G01*
X4813297Y2194260D01*
X4844539Y2190704D01*
X4840983Y2194260D01*
X4837681Y2204674D01*
X4837681Y2215088D01*
X4840983Y2225502D01*
X4848095Y2232360D01*
X4858509Y2235916D01*
X4865367Y2235916D01*
X4875781Y2232360D01*
X4882639Y2225502D01*
X4886195Y2215088D01*
X4886195Y2204674D01*
X4882639Y2194260D01*
X4879083Y2190704D01*
X4872225Y2187402D01*
X4559297Y2044654D02*
G01*
X4632195Y2044654D01*
X4559297Y2044654D02*
G01*
X4559297Y2068784D01*
X4562853Y2079198D01*
X4569711Y2086310D01*
X4576823Y2089612D01*
X4586983Y2093168D01*
X4604509Y2093168D01*
X4614923Y2089612D01*
X4621781Y2086310D01*
X4628639Y2079198D01*
X4632195Y2068784D01*
X4632195Y2044654D01*
X4559297Y2122886D02*
G01*
X4559297Y2160986D01*
X4586983Y2140158D01*
X4586983Y2150572D01*
X4590539Y2157684D01*
X4594095Y2160986D01*
X4604509Y2164542D01*
X4611367Y2164542D01*
X4621781Y2160986D01*
X4628639Y2154128D01*
X4632195Y2143714D01*
X4632195Y2133300D01*
X4628639Y2122886D01*
X4625083Y2119584D01*
X4618225Y2116028D01*
X4559297Y2194260D02*
G01*
X4559297Y2232360D01*
X4586983Y2211532D01*
X4586983Y2221946D01*
X4590539Y2228804D01*
X4594095Y2232360D01*
X4604509Y2235916D01*
X4611367Y2235916D01*
X4621781Y2232360D01*
X4628639Y2225502D01*
X4632195Y2215088D01*
X4632195Y2204674D01*
X4628639Y2194260D01*
X4625083Y2190704D01*
X4618225Y2187402D01*
X4305297Y2044654D02*
G01*
X4378195Y2044654D01*
X4305297Y2044654D02*
G01*
X4305297Y2068784D01*
X4308853Y2079198D01*
X4315711Y2086310D01*
X4322823Y2089612D01*
X4332983Y2093168D01*
X4350509Y2093168D01*
X4360923Y2089612D01*
X4367781Y2086310D01*
X4374639Y2079198D01*
X4378195Y2068784D01*
X4378195Y2044654D01*
X4305297Y2122886D02*
G01*
X4305297Y2160986D01*
X4332983Y2140158D01*
X4332983Y2150572D01*
X4336539Y2157684D01*
X4340095Y2160986D01*
X4350509Y2164542D01*
X4357367Y2164542D01*
X4367781Y2160986D01*
X4374639Y2154128D01*
X4378195Y2143714D01*
X4378195Y2133300D01*
X4374639Y2122886D01*
X4371083Y2119584D01*
X4364225Y2116028D01*
X4322823Y2190704D02*
G01*
X4319267Y2190704D01*
X4312409Y2194260D01*
X4308853Y2197816D01*
X4305297Y2204674D01*
X4305297Y2218644D01*
X4308853Y2225502D01*
X4312409Y2228804D01*
X4319267Y2232360D01*
X4326125Y2232360D01*
X4332983Y2228804D01*
X4343397Y2221946D01*
X4378195Y2187402D01*
X4378195Y2235916D01*
X4051297Y2044654D02*
G01*
X4124195Y2044654D01*
X4051297Y2044654D02*
G01*
X4051297Y2068784D01*
X4054853Y2079198D01*
X4061711Y2086310D01*
X4068823Y2089612D01*
X4078983Y2093168D01*
X4096509Y2093168D01*
X4106923Y2089612D01*
X4113781Y2086310D01*
X4120639Y2079198D01*
X4124195Y2068784D01*
X4124195Y2044654D01*
X4051297Y2122886D02*
G01*
X4051297Y2160986D01*
X4078983Y2140158D01*
X4078983Y2150572D01*
X4082539Y2157684D01*
X4086095Y2160986D01*
X4096509Y2164542D01*
X4103367Y2164542D01*
X4113781Y2160986D01*
X4120639Y2154128D01*
X4124195Y2143714D01*
X4124195Y2133300D01*
X4120639Y2122886D01*
X4117083Y2119584D01*
X4110225Y2116028D01*
X4051297Y2228804D02*
G01*
X4051297Y2194260D01*
X4082539Y2190704D01*
X4078983Y2194260D01*
X4075681Y2204674D01*
X4075681Y2215088D01*
X4078983Y2225502D01*
X4086095Y2232360D01*
X4096509Y2235916D01*
X4103367Y2235916D01*
X4113781Y2232360D01*
X4120639Y2225502D01*
X4124195Y2215088D01*
X4124195Y2204674D01*
X4120639Y2194260D01*
X4117083Y2190704D01*
X4110225Y2187402D01*
X3797297Y2044649D02*
G01*
X3870195Y2044649D01*
X3797297Y2044649D02*
G01*
X3797297Y2068779D01*
X3800853Y2079193D01*
X3807711Y2086305D01*
X3814823Y2089607D01*
X3824983Y2093163D01*
X3842509Y2093163D01*
X3852923Y2089607D01*
X3859781Y2086305D01*
X3866639Y2079193D01*
X3870195Y2068779D01*
X3870195Y2044649D01*
X3797297Y2122881D02*
G01*
X3797297Y2160981D01*
X3824983Y2140153D01*
X3824983Y2150567D01*
X3828539Y2157679D01*
X3832095Y2160981D01*
X3842509Y2164537D01*
X3849367Y2164537D01*
X3859781Y2160981D01*
X3866639Y2154123D01*
X3870195Y2143709D01*
X3870195Y2133295D01*
X3866639Y2122881D01*
X3863083Y2119579D01*
X3856225Y2116023D01*
X3797297Y2221941D02*
G01*
X3845811Y2187397D01*
X3845811Y2239213D01*
X3797297Y2221941D02*
G01*
X3870195Y2221941D01*
X3543297Y2044649D02*
G01*
X3616195Y2072335D01*
X3543297Y2100021D02*
G01*
X3616195Y2072335D01*
X3543297Y2122881D02*
G01*
X3616195Y2122881D01*
X3543297Y2122881D02*
G01*
X3616195Y2171395D01*
X3543297Y2171395D02*
G01*
X3616195Y2171395D01*
X3289505Y2044651D02*
G01*
X3362149Y2072337D01*
X3289505Y2100023D02*
G01*
X3362149Y2072337D01*
X3289505Y2122883D02*
G01*
X3362149Y2122883D01*
X3289505Y2122883D02*
G01*
X3289505Y2154125D01*
X3292807Y2164539D01*
X3296363Y2167841D01*
X3303221Y2171397D01*
X3313635Y2171397D01*
X3320493Y2167841D01*
X3324049Y2164539D01*
X3327605Y2154125D01*
X3327605Y2122883D01*
X3797297Y4114754D02*
G01*
X3870195Y4114754D01*
X3797297Y4114754D02*
G01*
X3797297Y4145996D01*
X3800853Y4156410D01*
X3804409Y4159712D01*
X3811267Y4163268D01*
X3818125Y4163268D01*
X3824983Y4159712D01*
X3828539Y4156410D01*
X3832095Y4145996D01*
X3832095Y4114754D01*
X3832095Y4138884D02*
G01*
X3870195Y4163268D01*
X3797297Y4186128D02*
G01*
X3870195Y4234642D01*
X3797297Y4234642D02*
G01*
X3870195Y4186128D01*
X3797297Y4278330D02*
G01*
X3800853Y4267916D01*
X3811267Y4260804D01*
X3828539Y4257502D01*
X3838953Y4257502D01*
X3856225Y4260804D01*
X3866639Y4267916D01*
X3870195Y4278330D01*
X3870195Y4285188D01*
X3866639Y4295602D01*
X3856225Y4302460D01*
X3838953Y4306016D01*
X3828539Y4306016D01*
X3811267Y4302460D01*
X3800853Y4295602D01*
X3797297Y4285188D01*
X3797297Y4278330D01*
X6591297Y4121609D02*
G01*
X6591297Y4159709D01*
X6618983Y4138881D01*
X6618983Y4149295D01*
X6622539Y4156407D01*
X6626095Y4159709D01*
X6636509Y4163265D01*
X6643367Y4163265D01*
X6653781Y4159709D01*
X6660639Y4152851D01*
X6664195Y4142437D01*
X6664195Y4132023D01*
X6660639Y4121609D01*
X6657083Y4118307D01*
X6650225Y4114751D01*
X6615681Y4186125D02*
G01*
X6664195Y4206953D01*
X6615681Y4227781D02*
G01*
X6664195Y4206953D01*
X6591297Y4257499D02*
G01*
X6591297Y4295599D01*
X6618983Y4274771D01*
X6618983Y4285185D01*
X6622539Y4292043D01*
X6626095Y4295599D01*
X6636509Y4298901D01*
X6643367Y4298901D01*
X6653781Y4295599D01*
X6660639Y4288741D01*
X6664195Y4278327D01*
X6664195Y4267913D01*
X6660639Y4257499D01*
X6657083Y4253943D01*
X6650225Y4250641D01*
X6354823Y4154121D02*
G01*
X6347711Y4150565D01*
X6340853Y4143707D01*
X6337297Y4136595D01*
X6337297Y4122879D01*
X6340853Y4116021D01*
X6347711Y4108909D01*
X6354823Y4105607D01*
X6364983Y4102051D01*
X6382509Y4102051D01*
X6392923Y4105607D01*
X6399781Y4108909D01*
X6406639Y4116021D01*
X6410195Y4122879D01*
X6410195Y4136595D01*
X6406639Y4143707D01*
X6399781Y4150565D01*
X6392923Y4154121D01*
X6382509Y4154121D01*
X6382509Y4136595D02*
G01*
X6382509Y4154121D01*
X6337297Y4176981D02*
G01*
X6410195Y4176981D01*
X6337297Y4176981D02*
G01*
X6410195Y4225241D01*
X6337297Y4225241D02*
G01*
X6410195Y4225241D01*
X6337297Y4248101D02*
G01*
X6410195Y4248101D01*
X6337297Y4248101D02*
G01*
X6337297Y4272485D01*
X6340853Y4282899D01*
X6347711Y4289757D01*
X6354823Y4293313D01*
X6364983Y4296615D01*
X6382509Y4296615D01*
X6392923Y4293313D01*
X6399781Y4289757D01*
X6406639Y4282899D01*
X6410195Y4272485D01*
X6410195Y4248101D01*
X6083297Y4140151D02*
G01*
X6156195Y4140151D01*
X6083297Y4140151D02*
G01*
X6083297Y4164281D01*
X6086853Y4174695D01*
X6093711Y4181807D01*
X6100823Y4185109D01*
X6110983Y4188665D01*
X6128509Y4188665D01*
X6138923Y4185109D01*
X6145781Y4181807D01*
X6152639Y4174695D01*
X6156195Y4164281D01*
X6156195Y4140151D01*
X6097267Y4211525D02*
G01*
X6093711Y4218383D01*
X6083297Y4228797D01*
X6156195Y4228797D01*
X6083297Y4293313D02*
G01*
X6083297Y4258515D01*
X6114539Y4255213D01*
X6110983Y4258515D01*
X6107681Y4268929D01*
X6107681Y4279343D01*
X6110983Y4289757D01*
X6118095Y4296615D01*
X6128509Y4300171D01*
X6135367Y4300171D01*
X6145781Y4296615D01*
X6152639Y4289757D01*
X6156195Y4279343D01*
X6156195Y4268929D01*
X6152639Y4258515D01*
X6149083Y4255213D01*
X6142225Y4251657D01*
X5829297Y4140151D02*
G01*
X5902195Y4140151D01*
X5829297Y4140151D02*
G01*
X5829297Y4164281D01*
X5832853Y4174695D01*
X5839711Y4181807D01*
X5846823Y4185109D01*
X5856983Y4188665D01*
X5874509Y4188665D01*
X5884923Y4185109D01*
X5891781Y4181807D01*
X5898639Y4174695D01*
X5902195Y4164281D01*
X5902195Y4140151D01*
X5846823Y4215081D02*
G01*
X5843267Y4215081D01*
X5836409Y4218383D01*
X5832853Y4221939D01*
X5829297Y4228797D01*
X5829297Y4242767D01*
X5832853Y4249625D01*
X5836409Y4253181D01*
X5843267Y4256483D01*
X5850125Y4256483D01*
X5856983Y4253181D01*
X5867397Y4246069D01*
X5902195Y4211525D01*
X5902195Y4260039D01*
X5575297Y4140149D02*
G01*
X5648195Y4140149D01*
X5575297Y4140149D02*
G01*
X5575297Y4164279D01*
X5578853Y4174693D01*
X5585711Y4181805D01*
X5592823Y4185107D01*
X5602983Y4188663D01*
X5620509Y4188663D01*
X5630923Y4185107D01*
X5637781Y4181805D01*
X5644639Y4174693D01*
X5648195Y4164279D01*
X5648195Y4140149D01*
X5575297Y4246067D02*
G01*
X5623811Y4211523D01*
X5623811Y4263339D01*
X5575297Y4246067D02*
G01*
X5648195Y4246067D01*
X5321297Y4114751D02*
G01*
X5394195Y4114751D01*
X5321297Y4114751D02*
G01*
X5321297Y4145993D01*
X5324853Y4156407D01*
X5328409Y4159709D01*
X5335267Y4163265D01*
X5342125Y4163265D01*
X5348983Y4159709D01*
X5352539Y4156407D01*
X5356095Y4145993D01*
X5356095Y4114751D01*
X5356095Y4138881D02*
G01*
X5394195Y4163265D01*
X5321297Y4186125D02*
G01*
X5394195Y4234639D01*
X5321297Y4234639D02*
G01*
X5394195Y4186125D01*
X5338823Y4260801D02*
G01*
X5335267Y4260801D01*
X5328409Y4264357D01*
X5324853Y4267913D01*
X5321297Y4274771D01*
X5321297Y4288741D01*
X5324853Y4295599D01*
X5328409Y4298901D01*
X5335267Y4302457D01*
X5342125Y4302457D01*
X5348983Y4298901D01*
X5359397Y4292043D01*
X5394195Y4257499D01*
X5394195Y4306013D01*
X5067297Y4138884D02*
G01*
X5140195Y4138884D01*
X5067297Y4114754D02*
G01*
X5067297Y4163268D01*
X5067297Y4186128D02*
G01*
X5140195Y4234642D01*
X5067297Y4234642D02*
G01*
X5140195Y4186128D01*
X5084823Y4260804D02*
G01*
X5081267Y4260804D01*
X5074409Y4264360D01*
X5070853Y4267916D01*
X5067297Y4274774D01*
X5067297Y4288744D01*
X5070853Y4295602D01*
X5074409Y4298904D01*
X5081267Y4302460D01*
X5088125Y4302460D01*
X5094983Y4298904D01*
X5105397Y4292046D01*
X5140195Y4257502D01*
X5140195Y4306016D01*
X4813300Y4140151D02*
G01*
X4886197Y4140151D01*
X4813300Y4140151D02*
G01*
X4813300Y4164281D01*
X4816856Y4174695D01*
X4823713Y4181807D01*
X4830825Y4185109D01*
X4840986Y4188665D01*
X4858511Y4188665D01*
X4868925Y4185109D01*
X4875784Y4181807D01*
X4882641Y4174695D01*
X4886197Y4164281D01*
X4886197Y4140151D01*
X4813300Y4253181D02*
G01*
X4813300Y4218383D01*
X4844541Y4215081D01*
X4840986Y4218383D01*
X4837684Y4228797D01*
X4837684Y4239211D01*
X4840986Y4249625D01*
X4848097Y4256483D01*
X4858511Y4260039D01*
X4865370Y4260039D01*
X4875784Y4256483D01*
X4882641Y4249625D01*
X4886197Y4239211D01*
X4886197Y4228797D01*
X4882641Y4218383D01*
X4879086Y4215081D01*
X4872227Y4211525D01*
X4559297Y4140149D02*
G01*
X4632195Y4140149D01*
X4559297Y4140149D02*
G01*
X4559297Y4164279D01*
X4562853Y4174693D01*
X4569711Y4181805D01*
X4576823Y4185107D01*
X4586983Y4188663D01*
X4604509Y4188663D01*
X4614923Y4185107D01*
X4621781Y4181805D01*
X4628639Y4174693D01*
X4632195Y4164279D01*
X4632195Y4140149D01*
X4573267Y4211523D02*
G01*
X4569711Y4218381D01*
X4559297Y4228795D01*
X4632195Y4228795D01*
X4559297Y4268927D02*
G01*
X4562853Y4258513D01*
X4569711Y4255211D01*
X4576823Y4255211D01*
X4583681Y4258513D01*
X4586983Y4265625D01*
X4590539Y4279341D01*
X4594095Y4289755D01*
X4600953Y4296613D01*
X4607811Y4300169D01*
X4618225Y4300169D01*
X4625083Y4296613D01*
X4628639Y4293311D01*
X4632195Y4282897D01*
X4632195Y4268927D01*
X4628639Y4258513D01*
X4625083Y4255211D01*
X4618225Y4251655D01*
X4607811Y4251655D01*
X4600953Y4255211D01*
X4594095Y4262069D01*
X4590539Y4272483D01*
X4586983Y4286199D01*
X4583681Y4293311D01*
X4576823Y4296613D01*
X4569711Y4296613D01*
X4562853Y4293311D01*
X4559297Y4282897D01*
X4559297Y4268927D01*
X4305300Y4140151D02*
G01*
X4378197Y4140151D01*
X4305300Y4140151D02*
G01*
X4305300Y4164281D01*
X4308856Y4174695D01*
X4315713Y4181807D01*
X4322825Y4185109D01*
X4332986Y4188665D01*
X4350511Y4188665D01*
X4360925Y4185109D01*
X4367784Y4181807D01*
X4374641Y4174695D01*
X4378197Y4164281D01*
X4378197Y4140151D01*
X4319270Y4211525D02*
G01*
X4315713Y4218383D01*
X4305300Y4228797D01*
X4378197Y4228797D01*
X4329684Y4296615D02*
G01*
X4340097Y4293313D01*
X4346956Y4286201D01*
X4350511Y4276041D01*
X4350511Y4272485D01*
X4346956Y4262071D01*
X4340097Y4255213D01*
X4329684Y4251657D01*
X4326127Y4251657D01*
X4315713Y4255213D01*
X4308856Y4262071D01*
X4305300Y4272485D01*
X4305300Y4276041D01*
X4308856Y4286201D01*
X4315713Y4293313D01*
X4329684Y4296615D01*
X4346956Y4296615D01*
X4364227Y4293313D01*
X4374641Y4286201D01*
X4378197Y4276041D01*
X4378197Y4268929D01*
X4374641Y4258515D01*
X4367784Y4255213D01*
X4051297Y4140151D02*
G01*
X4124195Y4140151D01*
X4051297Y4140151D02*
G01*
X4051297Y4164281D01*
X4054853Y4174695D01*
X4061711Y4181807D01*
X4068823Y4185109D01*
X4078983Y4188665D01*
X4096509Y4188665D01*
X4106923Y4185109D01*
X4113781Y4181807D01*
X4120639Y4174695D01*
X4124195Y4164281D01*
X4124195Y4140151D01*
X4068823Y4215081D02*
G01*
X4065267Y4215081D01*
X4058409Y4218383D01*
X4054853Y4221939D01*
X4051297Y4228797D01*
X4051297Y4242767D01*
X4054853Y4249625D01*
X4058409Y4253181D01*
X4065267Y4256483D01*
X4072125Y4256483D01*
X4078983Y4253181D01*
X4089397Y4246069D01*
X4124195Y4211525D01*
X4124195Y4260039D01*
X4065267Y4282899D02*
G01*
X4061711Y4289757D01*
X4051297Y4300171D01*
X4124195Y4300171D01*
X3543297Y4138884D02*
G01*
X3616195Y4138884D01*
X3543297Y4114754D02*
G01*
X3543297Y4163268D01*
X3543297Y4186128D02*
G01*
X3616195Y4234642D01*
X3543297Y4234642D02*
G01*
X3616195Y4186128D01*
X3543297Y4278330D02*
G01*
X3546853Y4267916D01*
X3557267Y4260804D01*
X3574539Y4257502D01*
X3584953Y4257502D01*
X3602225Y4260804D01*
X3612639Y4267916D01*
X3616195Y4278330D01*
X3616195Y4285188D01*
X3612639Y4295602D01*
X3602225Y4302460D01*
X3584953Y4306016D01*
X3574539Y4306016D01*
X3557267Y4302460D01*
X3546853Y4295602D01*
X3543297Y4285188D01*
X3543297Y4278330D01*
X3289297Y4114749D02*
G01*
X3362195Y4114749D01*
X3289297Y4114749D02*
G01*
X3289297Y4138879D01*
X3292853Y4149293D01*
X3299711Y4156405D01*
X3306823Y4159707D01*
X3316983Y4163263D01*
X3334509Y4163263D01*
X3344923Y4159707D01*
X3351781Y4156405D01*
X3358639Y4149293D01*
X3362195Y4138879D01*
X3362195Y4114749D01*
X3306823Y4189679D02*
G01*
X3303267Y4189679D01*
X3296409Y4192981D01*
X3292853Y4196537D01*
X3289297Y4203395D01*
X3289297Y4217365D01*
X3292853Y4224223D01*
X3296409Y4227779D01*
X3303267Y4231081D01*
X3310125Y4231081D01*
X3316983Y4227779D01*
X3327397Y4220667D01*
X3362195Y4186123D01*
X3362195Y4234637D01*
X3306823Y4260799D02*
G01*
X3303267Y4260799D01*
X3296409Y4264355D01*
X3292853Y4267911D01*
X3289297Y4274769D01*
X3289297Y4288739D01*
X3292853Y4295597D01*
X3296409Y4298899D01*
X3303267Y4302455D01*
X3310125Y4302455D01*
X3316983Y4298899D01*
X3327397Y4292041D01*
X3362195Y4257497D01*
X3362195Y4306011D01*
X3035297Y4114751D02*
G01*
X3108195Y4114751D01*
X3035297Y4114751D02*
G01*
X3035297Y4138881D01*
X3038853Y4149295D01*
X3045711Y4156407D01*
X3052823Y4159709D01*
X3062983Y4163265D01*
X3080509Y4163265D01*
X3090923Y4159709D01*
X3097781Y4156407D01*
X3104639Y4149295D01*
X3108195Y4138881D01*
X3108195Y4114751D01*
X3052823Y4189681D02*
G01*
X3049267Y4189681D01*
X3042409Y4192983D01*
X3038853Y4196539D01*
X3035297Y4203397D01*
X3035297Y4217367D01*
X3038853Y4224225D01*
X3042409Y4227781D01*
X3049267Y4231083D01*
X3056125Y4231083D01*
X3062983Y4227781D01*
X3073397Y4220669D01*
X3108195Y4186125D01*
X3108195Y4234639D01*
X3035297Y4264357D02*
G01*
X3035297Y4302457D01*
X3062983Y4281629D01*
X3062983Y4292043D01*
X3066539Y4298901D01*
X3070095Y4302457D01*
X3080509Y4306013D01*
X3087367Y4306013D01*
X3097781Y4302457D01*
X3104639Y4295599D01*
X3108195Y4285185D01*
X3108195Y4274771D01*
X3104639Y4264357D01*
X3101083Y4260801D01*
X3094225Y4257499D01*
X3035297Y2044649D02*
G01*
X3108195Y2044649D01*
X3035297Y2044649D02*
G01*
X3035297Y2089607D01*
X3070095Y2044649D02*
G01*
X3070095Y2072335D01*
X3108195Y2044649D02*
G01*
X3108195Y2089607D01*
X3035297Y2112467D02*
G01*
X3108195Y2112467D01*
X3035297Y2112467D02*
G01*
X3108195Y2160981D01*
X3035297Y2160981D02*
G01*
X3108195Y2160981D01*
D25*
X4749800Y1474215D02*
G01*
X4749800Y1365250D01*
X4749800Y1474215D02*
G01*
X4796536Y1474215D01*
X4812029Y1469136D01*
X4817363Y1463802D01*
X4822443Y1453387D01*
X4822443Y1442973D01*
X4817363Y1432560D01*
X4812029Y1427479D01*
X4796536Y1422400D01*
X4749800Y1422400D02*
G01*
X4796536Y1422400D01*
X4812029Y1417065D01*
X4817363Y1411986D01*
X4822443Y1401571D01*
X4822443Y1385823D01*
X4817363Y1375410D01*
X4812029Y1370329D01*
X4796536Y1365250D01*
X4749800Y1365250D01*
X4856734Y1474215D02*
G01*
X4856734Y1365250D01*
X4856734Y1474215D02*
G01*
X4924297Y1474215D01*
X4856734Y1422400D02*
G01*
X4898390Y1422400D01*
X4856734Y1365250D02*
G01*
X4924297Y1365250D01*
X5036565Y1448307D02*
G01*
X5031486Y1458721D01*
X5021072Y1469136D01*
X5010658Y1474215D01*
X4989829Y1474215D01*
X4979415Y1469136D01*
X4969002Y1458721D01*
X4963922Y1448307D01*
X4958588Y1432560D01*
X4958588Y1406652D01*
X4963922Y1391157D01*
X4969002Y1380744D01*
X4979415Y1370329D01*
X4989829Y1365250D01*
X5010658Y1365250D01*
X5021072Y1370329D01*
X5031486Y1380744D01*
X5036565Y1391157D01*
X5070856Y1411986D02*
G01*
X5164327Y1411986D01*
X5198618Y1474215D02*
G01*
X5198618Y1365250D01*
X5232908Y1474215D02*
G01*
X5232908Y1365250D01*
X5232908Y1474215D02*
G01*
X5305806Y1365250D01*
X5305806Y1474215D02*
G01*
X5305806Y1365250D01*
X4838700Y6160515D02*
G01*
X4838700Y6051550D01*
X4838700Y6160515D02*
G01*
X4885436Y6160515D01*
X4900929Y6155436D01*
X4906263Y6150102D01*
X4911343Y6139687D01*
X4911343Y6129273D01*
X4906263Y6118860D01*
X4900929Y6113779D01*
X4885436Y6108700D01*
X4838700Y6108700D01*
X4875022Y6108700D02*
G01*
X4911343Y6051550D01*
X5008118Y6160515D02*
G01*
X4956047Y6160515D01*
X4950968Y6113779D01*
X4956047Y6118860D01*
X4971795Y6124194D01*
X4987290Y6124194D01*
X5002784Y6118860D01*
X5013197Y6108700D01*
X5018531Y6092952D01*
X5018531Y6082537D01*
X5013197Y6067044D01*
X5002784Y6056629D01*
X4987290Y6051550D01*
X4971795Y6051550D01*
X4956047Y6056629D01*
X4950968Y6061710D01*
X4945634Y6072123D01*
X4838700Y5766815D02*
G01*
X4838700Y5657850D01*
X4838700Y5766815D02*
G01*
X4885436Y5766815D01*
X4900929Y5761736D01*
X4906263Y5756402D01*
X4911343Y5745987D01*
X4911343Y5735573D01*
X4906263Y5725160D01*
X4900929Y5720079D01*
X4885436Y5715000D01*
X4838700Y5715000D01*
X4875022Y5715000D02*
G01*
X4911343Y5657850D01*
X5008118Y5751321D02*
G01*
X5002784Y5761736D01*
X4987290Y5766815D01*
X4976875Y5766815D01*
X4961381Y5761736D01*
X4950968Y5745987D01*
X4945634Y5720079D01*
X4945634Y5694171D01*
X4950968Y5673344D01*
X4961381Y5662929D01*
X4976875Y5657850D01*
X4982209Y5657850D01*
X4997704Y5662929D01*
X5008118Y5673344D01*
X5013197Y5688837D01*
X5013197Y5694171D01*
X5008118Y5709665D01*
X4997704Y5720079D01*
X4982209Y5725160D01*
X4976875Y5725160D01*
X4961381Y5720079D01*
X4950968Y5709665D01*
X4945634Y5694171D01*
X6337300Y6566915D02*
G01*
X6337300Y6457950D01*
X6337300Y6566915D02*
G01*
X6384036Y6566915D01*
X6399529Y6561836D01*
X6404863Y6556502D01*
X6409943Y6546087D01*
X6409943Y6535673D01*
X6404863Y6525260D01*
X6399529Y6520179D01*
X6384036Y6515100D01*
X6337300Y6515100D01*
X6373622Y6515100D02*
G01*
X6409943Y6457950D01*
X6444234Y6546087D02*
G01*
X6454647Y6551421D01*
X6470395Y6566915D01*
X6470395Y6457950D01*
X6324600Y6160515D02*
G01*
X6324600Y6051550D01*
X6324600Y6160515D02*
G01*
X6371336Y6160515D01*
X6386829Y6155436D01*
X6392163Y6150102D01*
X6397243Y6139687D01*
X6397243Y6129273D01*
X6392163Y6118860D01*
X6386829Y6113779D01*
X6371336Y6108700D01*
X6324600Y6108700D01*
X6360922Y6108700D02*
G01*
X6397243Y6051550D01*
X6436868Y6134607D02*
G01*
X6436868Y6139687D01*
X6441947Y6150102D01*
X6447281Y6155436D01*
X6457695Y6160515D01*
X6478270Y6160515D01*
X6488684Y6155436D01*
X6494018Y6150102D01*
X6499097Y6139687D01*
X6499097Y6129273D01*
X6494018Y6118860D01*
X6483604Y6103365D01*
X6431534Y6051550D01*
X6504431Y6051550D01*
X6362700Y5766815D02*
G01*
X6362700Y5657850D01*
X6362700Y5766815D02*
G01*
X6409436Y5766815D01*
X6424929Y5761736D01*
X6430263Y5756402D01*
X6435343Y5745987D01*
X6435343Y5735573D01*
X6430263Y5725160D01*
X6424929Y5720079D01*
X6409436Y5715000D01*
X6362700Y5715000D01*
X6399022Y5715000D02*
G01*
X6435343Y5657850D01*
X6480047Y5766815D02*
G01*
X6537197Y5766815D01*
X6506209Y5725160D01*
X6521704Y5725160D01*
X6532118Y5720079D01*
X6537197Y5715000D01*
X6542531Y5699252D01*
X6542531Y5688837D01*
X6537197Y5673344D01*
X6526784Y5662929D01*
X6511290Y5657850D01*
X6495795Y5657850D01*
X6480047Y5662929D01*
X6474968Y5668010D01*
X6469634Y5678423D01*
D24*
X3799077Y6654800D02*
G01*
X3605275Y6654800D01*
X3799077Y6654800D02*
G01*
X3799077Y6590029D01*
X3789934Y6562344D01*
X3771391Y6544055D01*
X3752850Y6534657D01*
X3725163Y6525513D01*
X3679190Y6525513D01*
X3651250Y6534657D01*
X3632961Y6544055D01*
X3614420Y6562344D01*
X3605275Y6590029D01*
X3605275Y6654800D01*
X3752850Y6325870D02*
G01*
X3771391Y6335268D01*
X3789934Y6353810D01*
X3799077Y6372097D01*
X3799077Y6409181D01*
X3789934Y6427470D01*
X3771391Y6446012D01*
X3752850Y6455410D01*
X3725163Y6464554D01*
X3679190Y6464554D01*
X3651250Y6455410D01*
X3632961Y6446012D01*
X3614420Y6427470D01*
X3605275Y6409181D01*
X3605275Y6372097D01*
X3614420Y6353810D01*
X3632961Y6335268D01*
X3651250Y6325870D01*
X3799077Y5993384D02*
G01*
X3605275Y6085839D01*
X3799077Y6122670D02*
G01*
X3799077Y5993384D01*
X3651250Y5923279D02*
G01*
X3642106Y5932423D01*
X3632961Y5923279D01*
X3642106Y5914136D01*
X3651250Y5923279D01*
X3799077Y5760720D02*
G01*
X3669791Y5853176D01*
X3669791Y5714492D01*
X3799077Y5760720D02*
G01*
X3605275Y5760720D01*
X3799077Y5653531D02*
G01*
X3605275Y5579618D01*
X3799077Y5505704D02*
G01*
X3605275Y5579618D01*
D25*
X762000Y6871715D02*
G01*
X762000Y6762750D01*
X762000Y6871715D02*
G01*
X834643Y6762750D01*
X834643Y6871715D02*
G01*
X834643Y6762750D01*
X868934Y6871715D02*
G01*
X868934Y6762750D01*
X868934Y6871715D02*
G01*
X936497Y6871715D01*
X868934Y6819900D02*
G01*
X910590Y6819900D01*
X1048765Y6845808D02*
G01*
X1043686Y6856221D01*
X1033272Y6866636D01*
X1022858Y6871715D01*
X1002029Y6871715D01*
X991615Y6866636D01*
X981202Y6856221D01*
X976122Y6845808D01*
X970788Y6830060D01*
X970788Y6804152D01*
X976122Y6788658D01*
X981202Y6778244D01*
X991615Y6767829D01*
X1002029Y6762750D01*
X1022858Y6762750D01*
X1033272Y6767829D01*
X1043686Y6778244D01*
X1048765Y6788658D01*
X4813300Y6579615D02*
G01*
X4813300Y6470650D01*
X4813300Y6579615D02*
G01*
X4860036Y6579615D01*
X4875529Y6574536D01*
X4880863Y6569202D01*
X4885943Y6558787D01*
X4885943Y6548373D01*
X4880863Y6537960D01*
X4875529Y6532879D01*
X4860036Y6527800D01*
X4813300Y6527800D01*
X4849622Y6527800D02*
G01*
X4885943Y6470650D01*
X4972304Y6579615D02*
G01*
X4920234Y6506971D01*
X4998211Y6506971D01*
X4972304Y6579615D02*
G01*
X4972304Y6470650D01*
D10*
X7645400Y6654800D02*
G01*
X7645400Y5892800D01*
X7391400Y5892800D01*
X7391400Y6654800D01*
X7645400Y6654800D01*
X2552700Y812800D02*
G01*
X3314700Y812800D01*
X3314700Y558800D01*
X2552700Y558800D01*
X2552700Y812800D01*
X6083300Y825500D02*
G01*
X6845300Y825500D01*
X6845300Y571500D01*
X6083300Y571500D01*
X6083300Y825500D01*
D22*
X2561795Y2489151D02*
G01*
X2561795Y2514551D01*
X2561795Y2692351D01*
X2790395Y2692351D01*
X2790395Y2920951D01*
X2561795Y2920951D01*
X2561795Y3149551D01*
X2790395Y3149551D01*
X2790395Y3378151D01*
X2561795Y3378151D01*
X2561795Y3784551D01*
X2561795Y2489154D02*
G01*
X2960397Y2489154D01*
X2561795Y3606754D02*
G01*
X3060397Y3606624D01*
X2561795Y3784554D02*
G01*
X3060397Y3784424D01*
D10*
X3165629Y2382166D02*
G01*
X3165629Y3962173D01*
X4925621Y3962173D01*
X4925621Y2382166D01*
X3165629Y2382166D01*
X2460398Y2311351D02*
G01*
X2460398Y4038551D01*
X5000398Y4038551D01*
X5000398Y2311351D01*
X2460398Y2311351D01*
D23*
X7032398Y2768551D02*
G01*
X7032398Y3581351D01*
X7667398Y3581351D01*
X7667398Y2768551D01*
X7032398Y2768551D01*
X2449200Y1999952D02*
G01*
X2449200Y4349950D01*
X2699199Y4599952D02*
G01*
X7359200Y4599952D01*
X7609199Y4349950D02*
G01*
X7609199Y3581351D01*
X7609199Y1999952D02*
G01*
X7609199Y2768551D01*
X7359200Y1749950D02*
G01*
X2699199Y1749950D01*
D10*
X4439920Y1282700D02*
G01*
X5560059Y1282700D01*
X5560059Y1282700D02*
G01*
X5560059Y632460D01*
X5560059Y632460D02*
G01*
X5560059Y533400D01*
X5560059Y533400D02*
G01*
X4439920Y533400D01*
X4439920Y533400D02*
G01*
X4439920Y632460D01*
X4439920Y632460D02*
G01*
X4439920Y1282700D01*
X5560059Y632460D02*
G01*
X4439920Y632460D01*
X4599940Y5976620D02*
G01*
X4599940Y6215379D01*
X4599940Y6215379D02*
G01*
X5229859Y6215379D01*
X5229859Y6215379D02*
G01*
X5229859Y5976620D01*
X5229859Y5976620D02*
G01*
X4599940Y5976620D01*
X4599940Y5582920D02*
G01*
X4599940Y5821679D01*
X4599940Y5821679D02*
G01*
X5229859Y5821679D01*
X5229859Y5821679D02*
G01*
X5229859Y5582920D01*
X5229859Y5582920D02*
G01*
X4599940Y5582920D01*
X6111240Y6395720D02*
G01*
X6111240Y6634479D01*
X6111240Y6634479D02*
G01*
X6741159Y6634479D01*
X6741159Y6634479D02*
G01*
X6741159Y6395720D01*
X6741159Y6395720D02*
G01*
X6111240Y6395720D01*
X6123940Y5989320D02*
G01*
X6123940Y6228079D01*
X6123940Y6228079D02*
G01*
X6753859Y6228079D01*
X6753859Y6228079D02*
G01*
X6753859Y5989320D01*
X6753859Y5989320D02*
G01*
X6123940Y5989320D01*
X6123940Y5595620D02*
G01*
X6123940Y5834379D01*
X6123940Y5834379D02*
G01*
X6753859Y5834379D01*
X6753859Y5834379D02*
G01*
X6753859Y5595620D01*
X6753859Y5595620D02*
G01*
X6123940Y5595620D01*
X3081898Y6883400D02*
G01*
X3081898Y6543400D01*
X2821899Y6543400D01*
X2821899Y6883400D01*
X2501900Y6883400D02*
G01*
X2501900Y5363403D01*
X3401898Y5363403D01*
X3401898Y6883400D01*
X2501900Y6883400D01*
X1028700Y6642100D02*
G01*
X1028700Y5118100D01*
X774700Y5118100D01*
X774700Y6642100D01*
X1028700Y6642100D01*
X4599940Y6395720D02*
G01*
X4599940Y6634479D01*
X4599940Y6634479D02*
G01*
X5229859Y6634479D01*
X5229859Y6634479D02*
G01*
X5229859Y6395720D01*
X5229859Y6395720D02*
G01*
X4599940Y6395720D01*
D23*
G75*
G01*
X7359200Y4599953D02*
G02*
X7609200Y4349951I0J-250000D01*
G75*
G01*
X7609200Y1999953D02*
G02*
X7359200Y1749951I-249997J-5D01*
G75*
G01*
X2699200Y1749951D02*
G02*
X2449200Y1999953I-3J249997D01*
G75*
G01*
X2449200Y4349951D02*
G02*
X2699200Y4599953I249997J5D01*
G75*
G01
X2849220Y1999945D02*
G03X2849220Y1999945I-150012J0D01*
G75*
G01
X2849220Y4349953D02*
G03X2849220Y4349953I-150012J0D01*
G75*
G01
X7509205Y1999945D02*
G03X7509205Y1999945I-150012J0D01*
G75*
G01
X7509205Y4349953D02*
G03X7509205Y4349953I-150012J0D01*
M02*
